<?xml version="1.0"?>
<svg xmlns="http://www.w3.org/2000/svg" xmlns:xlink="http://www.w3.org/1999/xlink" width="220px" height="220px" viewBox="0 0 220 220">
  <svg xmlns="http://www.w3.org/2000/svg" xmlns:xlink="http://www.w3.org/1999/xlink" xmlns:a="http://ns.adobe.com/AdobeSVGViewerExtensions/3.0/" version="1.1" x="0px" y="0px" width="220px" height="220px" viewBox="-9.501 -20.884 220 220" enable-background="new -9.501 -20.884 220 220" xml:space="preserve">

	<g fill="#E8D4C0">
		<path d="M142.965,0H58.03c-5.557,0-10.699,2.964-13.476,7.782L2.084,81.336c-2.779,4.808-2.779,10.752,0,15.562   l42.469,73.553c2.777,4.817,7.919,7.782,13.476,7.782h84.935c5.561,0,10.702-2.965,13.476-7.782l42.471-73.553   c2.782-4.81,2.782-10.754,0-15.562L156.44,7.782C153.667,2.964,148.525,0,142.965,0L142.965,0z"/>
	</g>
</svg>
  <svg xmlns="http://www.w3.org/2000/svg" xmlns:xlink="http://www.w3.org/1999/xlink" xmlns:a="http://ns.adobe.com/AdobeSVGViewerExtensions/3.0/" version="1.1" x="0px" y="0px" width="220px" height="220px" viewBox="-2.007 -13.099 220 220" enable-background="new -2.007 -13.099 220 220" xml:space="preserve">

	<g fill="#945C25">
		<path d="M149.402,10c5.424,0,10.437,2.891,13.142,7.589l41.414,71.726c2.714,4.688,2.714,10.485,0,15.175    l-41.414,71.724c-2.705,4.699-7.718,7.59-13.142,7.59H66.58c-5.419,0-10.433-2.891-13.142-7.59l-41.413-71.724    c-2.71-4.689-2.71-10.487,0-15.175l41.413-71.726C56.147,12.891,61.161,10,66.58,10H149.402 M149.402,0H66.58    c-8.971,0-17.326,4.826-21.805,12.594L3.365,84.314c-4.487,7.761-4.487,17.41,0.002,25.179l41.411,71.72    c4.476,7.764,12.831,12.59,21.802,12.59h82.822c8.978,0,17.334-4.828,21.809-12.601l41.407-71.713    c4.492-7.763,4.492-17.416-0.006-25.185l-41.408-71.716C166.735,4.828,158.378,0,149.402,0L149.402,0z"/>
	</g>
</svg>
  <svg xmlns="http://www.w3.org/2000/svg" xmlns:xlink="http://www.w3.org/1999/xlink" xmlns:a="http://ns.adobe.com/AdobeSVGViewerExtensions/3.0/" version="1.1" x="0px" y="0px" width="220px" height="220px" viewBox="-58.883 -52.885 220 220" enable-background="new -58.883 -52.885 220 220" xml:space="preserve">

<g fill="#6B431A"> 
<path d="M12.167,87.847c3.735-0.821,9.732-2.879,15.051-4.833v15.071l47.848,0.145V83.033  c5.313,1.948,11.279,3.997,15.003,4.813c7.971,1.751,10.504-2.333,11.863-6.032c1.361-3.694-2.335-8.756-2.335-8.756  s-18.087-24.703-22.76-31.51c-4.672-6.807-9.528-5.838-9.528-5.838H51.462h-0.69H34.926c0,0-4.864-0.969-9.53,5.838  c-4.672,6.808-22.761,31.51-22.761,31.51s-3.695,5.062-2.334,8.756C1.66,85.514,4.191,89.598,12.167,87.847z M26.173,46.413  l24.899,8.555h0.089l24.899-8.555c0,0,0,14.586,0,20.424c-7.973-2.528-10.896-0.588-12.645,1.364  c-3.308,5.829,0.391,10.503,0.391,10.503s2.244,0.905,5.498,2.157v2.088l-16.433,5.478h-3.888L32.838,83.53V80.9  c3.305-1.272,5.589-2.196,5.589-2.196s3.697-4.674,0.39-10.503c-1.749-1.952-4.668-3.893-12.645-1.364  C26.173,60.999,26.173,46.413,26.173,46.413z M51.549,32.002c8.84,0,16.006-7.163,16.006-15.998C67.555,7.165,60.389,0,51.549,0  C42.713,0,35.55,7.165,35.55,16.004C35.55,24.839,42.713,32.002,51.549,32.002z"/>
</g>
</svg>
  <svg xmlns="http://www.w3.org/2000/svg" xmlns:xlink="http://www.w3.org/1999/xlink" xmlns:a="http://ns.adobe.com/AdobeSVGViewerExtensions/3.0/" version="1.1" x="0px" y="0px" width="220px" height="220px" viewBox="-15.221 -169.576 220 220" enable-background="new -15.221 -169.576 220 220" xml:space="preserve">

	<g fill="#B06E2B">
		<path d="M189.558,0H0l8.081,15.555L0,31.85h189.558l-8.539-16.295L189.558,0z"/>
	</g>
</svg>
  <svg xmlns="http://www.w3.org/2000/svg" xmlns:xlink="http://www.w3.org/1999/xlink" xmlns:a="http://ns.adobe.com/AdobeSVGViewerExtensions/3.0/" version="1.1" x="0px" y="0px" width="220px" height="220px" viewBox="-15.221 -169.576 220 220" enable-background="new -15.221 -169.576 220 220" xml:space="preserve">

	<path fill-opacity="0.15" d="M186.178,2l-6.912,12.592l-0.517,0.94l0.498,0.951l7.005,13.366H3.224l6.649-13.406l0.451-0.91l-0.468-0.9  L3.293,2H186.178 M189.558,0H0l8.081,15.555L0,31.85h189.558l-8.539-16.295L189.558,0L189.558,0z"/>
</svg>
  <svg xmlns="http://www.w3.org/2000/svg" width="220px" height="220px" viewBox="-110 -191 220 220" version="1.1">
	<text text-anchor="middle" fill="#FFFFFF" style="font-size:15px; font-family:Arial, Helvetica, sans-serif;">AVID READER</text>
</svg>
</svg>
