<?xml version="1.0"?>
<svg xmlns="http://www.w3.org/2000/svg" xmlns:xlink="http://www.w3.org/1999/xlink" width="220px" height="220px" viewBox="0 0 220 220">
  <svg xmlns="http://www.w3.org/2000/svg" xmlns:xlink="http://www.w3.org/1999/xlink" xmlns:a="http://ns.adobe.com/AdobeSVGViewerExtensions/3.0/" version="1.1" x="0px" y="0px" width="220px" height="220px" viewBox="-27.715 -27.715 220 220" enable-background="new -27.715 -27.715 220 220" xml:space="preserve">
<g fill="#D9FFD9">
<path fill-rule="evenodd" clip-rule="evenodd" d="M9.341,0h145.89c5.158,0,9.34,4.182,9.34,9.341v145.89  c0,5.158-4.182,9.34-9.34,9.34H9.341c-5.159,0-9.341-4.182-9.341-9.34V9.341C0,4.182,4.182,0,9.341,0z"/>
</g>
</svg>
  <svg xmlns="http://www.w3.org/2000/svg" xmlns:xlink="http://www.w3.org/1999/xlink" xmlns:a="http://ns.adobe.com/AdobeSVGViewerExtensions/3.0/" version="1.1" x="0px" y="0px" width="220px" height="220px" viewBox="-17.714 -17.714 220 220" enable-background="new -17.714 -17.714 220 220" xml:space="preserve">
<g fill="#228C22">
	<path d="M165.23,10c5.158,0,9.34,4.182,9.34,9.34v145.89c0,5.158-4.182,9.34-9.34,9.34H19.34   c-5.159,0-9.34-4.182-9.34-9.34V19.34c0-5.159,4.182-9.34,9.34-9.34H165.23 M165.23,0H19.34C8.676,0,0,8.676,0,19.34v145.89   c0,10.664,8.676,19.34,19.34,19.34h145.89c10.664,0,19.34-8.676,19.34-19.34V19.34C184.57,8.676,175.894,0,165.23,0L165.23,0z"/>
</g>
</svg>
  <svg xmlns="http://www.w3.org/2000/svg" xmlns:xlink="http://www.w3.org/1999/xlink" xmlns:a="http://ns.adobe.com/AdobeSVGViewerExtensions/3.0/" version="1.1" x="0px" y="0px" width="220px" height="220px" viewBox="-58.883 -52.885 220 220" enable-background="new -58.883 -52.885 220 220" xml:space="preserve">

<g fill="#046607"> 
<path d="M12.167,87.847c3.735-0.821,9.732-2.879,15.051-4.833v15.071l47.848,0.145V83.033  c5.313,1.948,11.279,3.997,15.003,4.813c7.971,1.751,10.504-2.333,11.863-6.032c1.361-3.694-2.335-8.756-2.335-8.756  s-18.087-24.703-22.76-31.51c-4.672-6.807-9.528-5.838-9.528-5.838H51.462h-0.69H34.926c0,0-4.864-0.969-9.53,5.838  c-4.672,6.808-22.761,31.51-22.761,31.51s-3.695,5.062-2.334,8.756C1.66,85.514,4.191,89.598,12.167,87.847z M26.173,46.413  l24.899,8.555h0.089l24.899-8.555c0,0,0,14.586,0,20.424c-7.973-2.528-10.896-0.588-12.645,1.364  c-3.308,5.829,0.391,10.503,0.391,10.503s2.244,0.905,5.498,2.157v2.088l-16.433,5.478h-3.888L32.838,83.53V80.9  c3.305-1.272,5.589-2.196,5.589-2.196s3.697-4.674,0.39-10.503c-1.749-1.952-4.668-3.893-12.645-1.364  C26.173,60.999,26.173,46.413,26.173,46.413z M51.549,32.002c8.84,0,16.006-7.163,16.006-15.998C67.555,7.165,60.389,0,51.549,0  C42.713,0,35.55,7.165,35.55,16.004C35.55,24.839,42.713,32.002,51.549,32.002z"/>
</g>
</svg>
  <svg xmlns="http://www.w3.org/2000/svg" xmlns:xlink="http://www.w3.org/1999/xlink" xmlns:a="http://ns.adobe.com/AdobeSVGViewerExtensions/3.0/" version="1.1" x="0px" y="0px" width="220px" height="220px" viewBox="-15.221 -169.576 220 220" enable-background="new -15.221 -169.576 220 220" xml:space="preserve">

	<g fill="#006954">
		<path d="M189.558,0H0l8.081,15.555L0,31.85h189.558l-8.539-16.295L189.558,0z"/>
	</g>
</svg>
  <svg xmlns="http://www.w3.org/2000/svg" xmlns:xlink="http://www.w3.org/1999/xlink" xmlns:a="http://ns.adobe.com/AdobeSVGViewerExtensions/3.0/" version="1.1" x="0px" y="0px" width="220px" height="220px" viewBox="-15.221 -169.576 220 220" enable-background="new -15.221 -169.576 220 220" xml:space="preserve">

	<path fill-opacity="0.15" d="M186.178,2l-6.912,12.592l-0.517,0.94l0.498,0.951l7.005,13.366H3.224l6.649-13.406l0.451-0.91l-0.468-0.9  L3.293,2H186.178 M189.558,0H0l8.081,15.555L0,31.85h189.558l-8.539-16.295L189.558,0L189.558,0z"/>
</svg>
  <svg xmlns="http://www.w3.org/2000/svg" width="220px" height="220px" viewBox="-110 -191 220 220" version="1.1">
	<text text-anchor="middle" fill="#FFFFFF" style="font-size:15px; font-family:Arial, Helvetica, sans-serif;">AVID READER</text>
</svg>
</svg>
