<?xml version="1.0"?>
<svg xmlns="http://www.w3.org/2000/svg" xmlns:xlink="http://www.w3.org/1999/xlink" width="220px" height="220px" viewBox="0 0 220 220">
  <svg xmlns="http://www.w3.org/2000/svg" xmlns:xlink="http://www.w3.org/1999/xlink" xmlns:a="http://ns.adobe.com/AdobeSVGViewerExtensions/3.0/" version="1.1" x="0px" y="0px" width="220px" height="220px" viewBox="-12.51 -12.51 220 220" enable-background="new -12.51 -12.51 220 220" xml:space="preserve">
<g fill="#FFF2D6">
<path fill-rule="evenodd" clip-rule="evenodd" d="M103.212,2.371l89.396,89.395c3.161,3.161,3.161,8.286,0,11.446  l-89.396,89.396c-3.16,3.161-8.285,3.161-11.446,0L2.371,103.212c-3.162-3.16-3.162-8.285,0-11.446L91.766,2.371  C94.927-0.791,100.052-0.791,103.212,2.371z"/>
</g>
</svg>
  <svg xmlns="http://www.w3.org/2000/svg" xmlns:xlink="http://www.w3.org/1999/xlink" xmlns:a="http://ns.adobe.com/AdobeSVGViewerExtensions/3.0/" version="1.1" x="0px" y="0px" width="220px" height="220px" viewBox="-2.51 -2.51 220 220" enable-background="new -2.51 -2.51 220 220" xml:space="preserve">
<g fill="#B5962F">
	<path d="M107.49,10c2.071,0,4.143,0.79,5.723,2.371l89.396,89.395c3.161,3.161,3.161,8.286,0,11.446l-89.396,89.396   c-1.58,1.581-3.651,2.371-5.723,2.371s-4.143-0.79-5.724-2.371l-89.395-89.396c-3.162-3.16-3.162-8.285,0-11.446l89.395-89.395   C103.347,10.79,105.418,10,107.49,10 M107.49,0c-4.833,0-9.377,1.882-12.795,5.301L5.3,94.695C1.882,98.112,0,102.656,0,107.49   c0,4.834,1.883,9.378,5.302,12.795l89.393,89.395c3.418,3.417,7.962,5.3,12.795,5.3c4.834,0,9.378-1.883,12.795-5.301   l89.395-89.395c3.417-3.416,5.3-7.96,5.3-12.794c0-4.833-1.883-9.377-5.3-12.795L120.284,5.3C116.868,1.883,112.324,0,107.49,0   L107.49,0z"/>
</g>
</svg>
  <svg xmlns="http://www.w3.org/2000/svg" xmlns:xlink="http://www.w3.org/1999/xlink" xmlns:a="http://ns.adobe.com/AdobeSVGViewerExtensions/3.0/" version="1.1" x="0px" y="0px" width="220px" height="220px" viewBox="-58.883 -52.885 220 220" enable-background="new -58.883 -52.885 220 220" xml:space="preserve">

<g fill="#D1AC35"> 
<path d="M12.167,87.847c3.735-0.821,9.732-2.879,15.051-4.833v15.071l47.848,0.145V83.033  c5.313,1.948,11.279,3.997,15.003,4.813c7.971,1.751,10.504-2.333,11.863-6.032c1.361-3.694-2.335-8.756-2.335-8.756  s-18.087-24.703-22.76-31.51c-4.672-6.807-9.528-5.838-9.528-5.838H51.462h-0.69H34.926c0,0-4.864-0.969-9.53,5.838  c-4.672,6.808-22.761,31.51-22.761,31.51s-3.695,5.062-2.334,8.756C1.66,85.514,4.191,89.598,12.167,87.847z M26.173,46.413  l24.899,8.555h0.089l24.899-8.555c0,0,0,14.586,0,20.424c-7.973-2.528-10.896-0.588-12.645,1.364  c-3.308,5.829,0.391,10.503,0.391,10.503s2.244,0.905,5.498,2.157v2.088l-16.433,5.478h-3.888L32.838,83.53V80.9  c3.305-1.272,5.589-2.196,5.589-2.196s3.697-4.674,0.39-10.503c-1.749-1.952-4.668-3.893-12.645-1.364  C26.173,60.999,26.173,46.413,26.173,46.413z M51.549,32.002c8.84,0,16.006-7.163,16.006-15.998C67.555,7.165,60.389,0,51.549,0  C42.713,0,35.55,7.165,35.55,16.004C35.55,24.839,42.713,32.002,51.549,32.002z"/>
</g>
</svg>
  <svg xmlns="http://www.w3.org/2000/svg" xmlns:xlink="http://www.w3.org/1999/xlink" xmlns:a="http://ns.adobe.com/AdobeSVGViewerExtensions/3.0/" version="1.1" x="0px" y="0px" width="220px" height="220px" viewBox="-15.221 -169.576 220 220" enable-background="new -15.221 -169.576 220 220" xml:space="preserve">

	<g fill="#856D22">
		<path d="M189.558,0H0l8.081,15.555L0,31.85h189.558l-8.539-16.295L189.558,0z"/>
	</g>
</svg>
  <svg xmlns="http://www.w3.org/2000/svg" xmlns:xlink="http://www.w3.org/1999/xlink" xmlns:a="http://ns.adobe.com/AdobeSVGViewerExtensions/3.0/" version="1.1" x="0px" y="0px" width="220px" height="220px" viewBox="-15.221 -169.576 220 220" enable-background="new -15.221 -169.576 220 220" xml:space="preserve">

	<path fill-opacity="0.15" d="M186.178,2l-6.912,12.592l-0.517,0.94l0.498,0.951l7.005,13.366H3.224l6.649-13.406l0.451-0.91l-0.468-0.9  L3.293,2H186.178 M189.558,0H0l8.081,15.555L0,31.85h189.558l-8.539-16.295L189.558,0L189.558,0z"/>
</svg>
  <svg xmlns="http://www.w3.org/2000/svg" width="220px" height="220px" viewBox="-110 -191 220 220" version="1.1">
	<text text-anchor="middle" fill="#FFFFFF" style="font-size:15px; font-family:Arial, Helvetica, sans-serif;">AVID READER</text>
</svg>
</svg>
