<?xml version="1.0"?>
<svg xmlns="http://www.w3.org/2000/svg" xmlns:xlink="http://www.w3.org/1999/xlink" width="220px" height="220px" viewBox="0 0 220 220">
  <svg xmlns="http://www.w3.org/2000/svg" xmlns:xlink="http://www.w3.org/1999/xlink" xmlns:a="http://ns.adobe.com/AdobeSVGViewerExtensions/3.0/" version="1.1" x="0px" y="0px" width="220px" height="220px" viewBox="-18 -22.072 220 220" enable-background="new -18 -22.072 220 220" xml:space="preserve">
	<g fill="#F2F2F2">
		<path d="M143.402,175.856H40.596c-3.825,0-7.213-2.463-8.396-6.101L0.433,71.984   c-1.182-3.638,0.113-7.622,3.207-9.87L86.811,1.686c3.095-2.249,7.285-2.248,10.379,0l83.171,60.428   c3.095,2.248,4.388,6.232,3.208,9.87l-31.77,97.771C150.617,173.393,147.226,175.856,143.402,175.856L143.402,175.856z"/>
	</g>
</svg>
  <svg xmlns="http://www.w3.org/2000/svg" xmlns:xlink="http://www.w3.org/1999/xlink" xmlns:a="http://ns.adobe.com/AdobeSVGViewerExtensions/3.0/" version="1.1" x="0px" y="0px" width="220px" height="220px" viewBox="-8.993 -13.028 220 220" enable-background="new -8.993 -13.028 220 220" xml:space="preserve">
	<g fill="#9C9E9E">
		<path d="M101.006,10c1.801,0,3.603,0.556,5.133,1.668l82.267,59.771c3.062,2.223,4.341,6.165,3.173,9.762   l-31.424,96.71c-1.168,3.598-4.522,6.033-8.305,6.033H50.162c-3.783,0-7.136-2.436-8.305-6.033l-31.422-96.71   c-1.169-3.598,0.112-7.539,3.172-9.762l82.268-59.771C97.404,10.556,99.206,10,101.006,10 M101.007,0   c-3.982,0-7.79,1.237-11.011,3.578L7.729,63.348c-6.585,4.785-9.32,13.201-6.805,20.943L32.346,181   c2.516,7.742,9.675,12.943,17.815,12.943h101.689c8.143,0,15.303-5.202,17.816-12.945l31.423-96.708   c2.515-7.746-0.222-16.162-6.808-20.944l-82.265-59.77C108.795,1.237,104.988,0,101.007,0L101.007,0z"/>
	</g>
</svg>
  <svg xmlns="http://www.w3.org/2000/svg" xmlns:xlink="http://www.w3.org/1999/xlink" xmlns:a="http://ns.adobe.com/AdobeSVGViewerExtensions/3.0/" version="1.1" x="0px" y="0px" width="220px" height="220px" viewBox="-58.883 -52.885 220 220" enable-background="new -58.883 -52.885 220 220" xml:space="preserve">

<g fill="#676969"> 
<path d="M12.167,87.847c3.735-0.821,9.732-2.879,15.051-4.833v15.071l47.848,0.145V83.033  c5.313,1.948,11.279,3.997,15.003,4.813c7.971,1.751,10.504-2.333,11.863-6.032c1.361-3.694-2.335-8.756-2.335-8.756  s-18.087-24.703-22.76-31.51c-4.672-6.807-9.528-5.838-9.528-5.838H51.462h-0.69H34.926c0,0-4.864-0.969-9.53,5.838  c-4.672,6.808-22.761,31.51-22.761,31.51s-3.695,5.062-2.334,8.756C1.66,85.514,4.191,89.598,12.167,87.847z M26.173,46.413  l24.899,8.555h0.089l24.899-8.555c0,0,0,14.586,0,20.424c-7.973-2.528-10.896-0.588-12.645,1.364  c-3.308,5.829,0.391,10.503,0.391,10.503s2.244,0.905,5.498,2.157v2.088l-16.433,5.478h-3.888L32.838,83.53V80.9  c3.305-1.272,5.589-2.196,5.589-2.196s3.697-4.674,0.39-10.503c-1.749-1.952-4.668-3.893-12.645-1.364  C26.173,60.999,26.173,46.413,26.173,46.413z M51.549,32.002c8.84,0,16.006-7.163,16.006-15.998C67.555,7.165,60.389,0,51.549,0  C42.713,0,35.55,7.165,35.55,16.004C35.55,24.839,42.713,32.002,51.549,32.002z"/>
</g>
</svg>
  <svg xmlns="http://www.w3.org/2000/svg" xmlns:xlink="http://www.w3.org/1999/xlink" xmlns:a="http://ns.adobe.com/AdobeSVGViewerExtensions/3.0/" version="1.1" x="0px" y="0px" width="220px" height="220px" viewBox="-15.221 -169.576 220 220" enable-background="new -15.221 -169.576 220 220" xml:space="preserve">

	<g fill="#858585">
		<path d="M189.558,0H0l8.081,15.555L0,31.85h189.558l-8.539-16.295L189.558,0z"/>
	</g>
</svg>
  <svg xmlns="http://www.w3.org/2000/svg" xmlns:xlink="http://www.w3.org/1999/xlink" xmlns:a="http://ns.adobe.com/AdobeSVGViewerExtensions/3.0/" version="1.1" x="0px" y="0px" width="220px" height="220px" viewBox="-15.221 -169.576 220 220" enable-background="new -15.221 -169.576 220 220" xml:space="preserve">

	<path fill-opacity="0.15" d="M186.178,2l-6.912,12.592l-0.517,0.94l0.498,0.951l7.005,13.366H3.224l6.649-13.406l0.451-0.91l-0.468-0.9  L3.293,2H186.178 M189.558,0H0l8.081,15.555L0,31.85h189.558l-8.539-16.295L189.558,0L189.558,0z"/>
</svg>
  <svg xmlns="http://www.w3.org/2000/svg" width="220px" height="220px" viewBox="-110 -191 220 220" version="1.1">
	<text text-anchor="middle" fill="#FFFFFF" style="font-size:15px; font-family:Arial, Helvetica, sans-serif;">AVID READER</text>
</svg>
</svg>
