<?xml version="1.0"?>
<svg xmlns="http://www.w3.org/2000/svg" xmlns:xlink="http://www.w3.org/1999/xlink" width="220px" height="220px" viewBox="0 0 220 220">
  <svg xmlns="http://www.w3.org/2000/svg" xmlns:xlink="http://www.w3.org/1999/xlink" xmlns:a="http://ns.adobe.com/AdobeSVGViewerExtensions/3.0/" version="1.1" x="0px" y="0px" width="220px" height="220px" viewBox="-27 -16.416 220 220" enable-background="new -27 -16.416 220 220" xml:space="preserve">
	 
	<g fill="#F0F0F0">
		<path d="M83.002,0L83.002,0C82.344,0.723,55.137,29.785,0.024,23.066c0,63.061,0,81.661,0,81.661    c-0.711,11.826,14.275,62.366,82.979,86.442C161.44,157.918,166,104.727,166,104.727s0-18.6,0-81.661    C110.886,29.785,83.663,0.723,83.002,0z"/>
	</g>
</svg>
  <svg xmlns="http://www.w3.org/2000/svg" xmlns:xlink="http://www.w3.org/1999/xlink" xmlns:a="http://ns.adobe.com/AdobeSVGViewerExtensions/3.0/" version="1.1" x="0px" y="0px" width="220px" height="220px" viewBox="-17.509 -2.133 220 220" enable-background="new -17.509 -2.133 220 220" xml:space="preserve">
	<g fill="#004F9E">
		<path d="M92.492,14.867c0.589,0.644,22.394,23.927,66.375,23.927c5.075,0,10.449-0.31,16.116-1.001c0,62.675,0,81.161,0,81.161    s-4.532,52.866-82.491,85.913c-68.282-23.929-83.178-74.159-82.47-85.913c0,0,0-18.486,0-81.161    c5.67,0.691,11.038,1.001,16.115,1.001C70.108,38.793,91.906,15.511,92.492,14.867 M92.449,0l-7.326,8.106    c-0.29,0.304-5.262,5.425-14.818,10.446c-12.936,6.796-27.796,10.241-44.167,10.241c-4.841,0-9.855-0.312-14.905-0.928L0.022,26.5    v11.293v80.908c-0.407,9.313,4.77,27.039,17.23,44.461c11.291,15.788,32.936,37.477,71.933,51.143l3.649,1.278l3.561-1.509    c82.556-34.995,88.346-91.862,88.552-94.266l0.036-0.427v-0.428V37.792V26.5l-11.21,1.366c-5.05,0.616-10.065,0.928-14.906,0.928    c-16.39,0-31.265-3.451-44.212-10.258c-9.788-5.146-14.764-10.396-14.813-10.449L92.449,0L92.449,0z"/>
	</g>
</svg>
  <svg xmlns="http://www.w3.org/2000/svg" xmlns:xlink="http://www.w3.org/1999/xlink" xmlns:a="http://ns.adobe.com/AdobeSVGViewerExtensions/3.0/" version="1.1" x="0px" y="0px" width="220px" height="220px" viewBox="-58.883 -52.885 220 220" enable-background="new -58.883 -52.885 220 220" xml:space="preserve">

<g fill="#007FFF"> 
<path d="M12.167,87.847c3.735-0.821,9.732-2.879,15.051-4.833v15.071l47.848,0.145V83.033  c5.313,1.948,11.279,3.997,15.003,4.813c7.971,1.751,10.504-2.333,11.863-6.032c1.361-3.694-2.335-8.756-2.335-8.756  s-18.087-24.703-22.76-31.51c-4.672-6.807-9.528-5.838-9.528-5.838H51.462h-0.69H34.926c0,0-4.864-0.969-9.53,5.838  c-4.672,6.808-22.761,31.51-22.761,31.51s-3.695,5.062-2.334,8.756C1.66,85.514,4.191,89.598,12.167,87.847z M26.173,46.413  l24.899,8.555h0.089l24.899-8.555c0,0,0,14.586,0,20.424c-7.973-2.528-10.896-0.588-12.645,1.364  c-3.308,5.829,0.391,10.503,0.391,10.503s2.244,0.905,5.498,2.157v2.088l-16.433,5.478h-3.888L32.838,83.53V80.9  c3.305-1.272,5.589-2.196,5.589-2.196s3.697-4.674,0.39-10.503c-1.749-1.952-4.668-3.893-12.645-1.364  C26.173,60.999,26.173,46.413,26.173,46.413z M51.549,32.002c8.84,0,16.006-7.163,16.006-15.998C67.555,7.165,60.389,0,51.549,0  C42.713,0,35.55,7.165,35.55,16.004C35.55,24.839,42.713,32.002,51.549,32.002z"/>
</g>
</svg>
  <svg xmlns="http://www.w3.org/2000/svg" xmlns:xlink="http://www.w3.org/1999/xlink" xmlns:a="http://ns.adobe.com/AdobeSVGViewerExtensions/3.0/" version="1.1" x="0px" y="0px" width="220px" height="220px" viewBox="-15.221 -169.576 220 220" enable-background="new -15.221 -169.576 220 220" xml:space="preserve">

	<g fill="#B7E6FF">
		<path d="M189.558,0H0l8.081,15.555L0,31.85h189.558l-8.539-16.295L189.558,0z"/>
	</g>
</svg>
  <svg xmlns="http://www.w3.org/2000/svg" xmlns:xlink="http://www.w3.org/1999/xlink" xmlns:a="http://ns.adobe.com/AdobeSVGViewerExtensions/3.0/" version="1.1" x="0px" y="0px" width="220px" height="220px" viewBox="-15.221 -169.576 220 220" enable-background="new -15.221 -169.576 220 220" xml:space="preserve">

	<path fill-opacity="0.15" d="M186.178,2l-6.912,12.592l-0.517,0.94l0.498,0.951l7.005,13.366H3.224l6.649-13.406l0.451-0.91l-0.468-0.9  L3.293,2H186.178 M189.558,0H0l8.081,15.555L0,31.85h189.558l-8.539-16.295L189.558,0L189.558,0z"/>
</svg>
  <svg xmlns="http://www.w3.org/2000/svg" width="220px" height="220px" viewBox="-110 -191 220 220" version="1.1">
	<text text-anchor="middle" fill="#222222" style="font-size:15px; font-family:Arial, Helvetica, sans-serif;">AVID READER</text>
</svg>
</svg>
