<?xml version="1.0"?>
<svg xmlns="http://www.w3.org/2000/svg" xmlns:xlink="http://www.w3.org/1999/xlink" width="220px" height="220px" viewBox="0 0 220 220">
  <svg xmlns="http://www.w3.org/2000/svg" xmlns:xlink="http://www.w3.org/1999/xlink" xmlns:a="http://ns.adobe.com/AdobeSVGViewerExtensions/3.0/" version="1.1" x="0px" y="0px" width="220px" height="220px" viewBox="-19.641 -17.479 220 220" enable-background="new -19.641 -17.479 220 220" xml:space="preserve">
<g fill="#D7CDF8">
<path d="M154.401,21.756c-5.147-7.884-14.033-13.104-24.15-13.104h-15.536C107.315,3.111,99.065,0,90.36,0  c-8.707,0-16.955,3.111-24.356,8.652H50.468c-10.118,0-19.004,5.22-24.15,13.104C11.572,23.036,0,35.39,0,50.467v42.054v37.729  c0,15.076,11.572,27.432,26.317,28.712c5.146,7.884,14.033,13.104,24.15,13.104h10.436c8.623,8.234,18.693,12.977,29.455,12.977  c10.765,0,20.834-4.742,29.457-12.977h10.436c10.118,0,19.003-5.22,24.15-13.104c14.744-1.28,26.316-13.634,26.316-28.712V92.521  V50.467C180.718,35.39,169.146,23.036,154.401,21.756z"/>
</g>
</svg>
  <svg xmlns="http://www.w3.org/2000/svg" xmlns:xlink="http://www.w3.org/1999/xlink" xmlns:a="http://ns.adobe.com/AdobeSVGViewerExtensions/3.0/" version="1.1" x="0px" y="0px" width="220px" height="220px" viewBox="-9.95 -7.796 220 220" enable-background="new -9.95 -7.796 220 220" xml:space="preserve">
<g fill="#710193">
	<path d="M100.051,10c8.676,0,16.897,3.101,24.271,8.623h15.483c10.084,0,18.939,5.202,24.069,13.059   c14.692,1.276,26.226,13.587,26.226,28.613v41.91v37.601c0,15.025-11.533,27.335-26.226,28.609   c-5.13,7.858-13.985,13.062-24.069,13.062h-10.399c-8.594,8.204-18.628,12.933-29.356,12.933c-10.726,0-20.76-4.729-29.354-12.933   h-10.4c-10.082,0-18.938-5.203-24.067-13.062C21.533,167.14,10,154.828,10,139.805v-37.601v-41.91   c0-15.025,11.533-27.337,26.228-28.613c5.129-7.856,13.984-13.059,24.067-13.059h15.484C83.154,13.101,91.374,10,100.051,10    M100.051,0c-9.464,0-18.883,2.971-27.433,8.623H60.294c-11.535,0-22.301,5.082-29.621,13.793   c-7.809,1.655-14.935,5.689-20.419,11.634C3.642,41.216,0,50.537,0,60.294v41.91v37.601c0,9.757,3.642,19.076,10.254,26.242   c5.485,5.944,12.61,9.979,20.419,11.633c7.32,8.713,18.086,13.796,29.622,13.796h6.574c10.04,8.476,21.436,12.933,33.18,12.933   c11.745,0,23.143-4.457,33.183-12.933h6.573c11.535,0,22.303-5.083,29.624-13.796c7.808-1.654,14.932-5.688,20.417-11.632   c6.612-7.166,10.254-16.486,10.254-26.243v-37.601v-41.91c0-9.757-3.642-19.077-10.254-26.244   c-5.484-5.944-12.61-9.979-20.418-11.634c-7.321-8.712-18.088-13.793-29.623-13.793h-12.322C118.935,2.97,109.517,0,100.051,0   L100.051,0z"/>
</g>
</svg>
  <svg xmlns="http://www.w3.org/2000/svg" xmlns:xlink="http://www.w3.org/1999/xlink" xmlns:a="http://ns.adobe.com/AdobeSVGViewerExtensions/3.0/" version="1.1" x="0px" y="0px" width="220px" height="220px" viewBox="-58.883 -52.885 220 220" enable-background="new -58.883 -52.885 220 220" xml:space="preserve">

<g fill="#9C015E"> 
<path d="M12.167,87.847c3.735-0.821,9.732-2.879,15.051-4.833v15.071l47.848,0.145V83.033  c5.313,1.948,11.279,3.997,15.003,4.813c7.971,1.751,10.504-2.333,11.863-6.032c1.361-3.694-2.335-8.756-2.335-8.756  s-18.087-24.703-22.76-31.51c-4.672-6.807-9.528-5.838-9.528-5.838H51.462h-0.69H34.926c0,0-4.864-0.969-9.53,5.838  c-4.672,6.808-22.761,31.51-22.761,31.51s-3.695,5.062-2.334,8.756C1.66,85.514,4.191,89.598,12.167,87.847z M26.173,46.413  l24.899,8.555h0.089l24.899-8.555c0,0,0,14.586,0,20.424c-7.973-2.528-10.896-0.588-12.645,1.364  c-3.308,5.829,0.391,10.503,0.391,10.503s2.244,0.905,5.498,2.157v2.088l-16.433,5.478h-3.888L32.838,83.53V80.9  c3.305-1.272,5.589-2.196,5.589-2.196s3.697-4.674,0.39-10.503c-1.749-1.952-4.668-3.893-12.645-1.364  C26.173,60.999,26.173,46.413,26.173,46.413z M51.549,32.002c8.84,0,16.006-7.163,16.006-15.998C67.555,7.165,60.389,0,51.549,0  C42.713,0,35.55,7.165,35.55,16.004C35.55,24.839,42.713,32.002,51.549,32.002z"/>
</g>
</svg>
  <svg xmlns="http://www.w3.org/2000/svg" xmlns:xlink="http://www.w3.org/1999/xlink" xmlns:a="http://ns.adobe.com/AdobeSVGViewerExtensions/3.0/" version="1.1" x="0px" y="0px" width="220px" height="220px" viewBox="-15.221 -169.576 220 220" enable-background="new -15.221 -169.576 220 220" xml:space="preserve">

	<g fill="#601A35">
		<path d="M189.558,0H0l8.081,15.555L0,31.85h189.558l-8.539-16.295L189.558,0z"/>
	</g>
</svg>
  <svg xmlns="http://www.w3.org/2000/svg" xmlns:xlink="http://www.w3.org/1999/xlink" xmlns:a="http://ns.adobe.com/AdobeSVGViewerExtensions/3.0/" version="1.1" x="0px" y="0px" width="220px" height="220px" viewBox="-15.221 -169.576 220 220" enable-background="new -15.221 -169.576 220 220" xml:space="preserve">

	<path fill-opacity="0.15" d="M186.178,2l-6.912,12.592l-0.517,0.94l0.498,0.951l7.005,13.366H3.224l6.649-13.406l0.451-0.91l-0.468-0.9  L3.293,2H186.178 M189.558,0H0l8.081,15.555L0,31.85h189.558l-8.539-16.295L189.558,0L189.558,0z"/>
</svg>
  <svg xmlns="http://www.w3.org/2000/svg" width="220px" height="220px" viewBox="-110 -191 220 220" version="1.1">
	<text text-anchor="middle" fill="#FFFFFF" style="font-size:15px; font-family:Arial, Helvetica, sans-serif;">AVID READER</text>
</svg>
</svg>
