<?xml version="1.0"?>
<svg xmlns="http://www.w3.org/2000/svg" xmlns:xlink="http://www.w3.org/1999/xlink" width="220px" height="220px" viewBox="0 0 220 220">
  <svg xmlns="http://www.w3.org/2000/svg" xmlns:xlink="http://www.w3.org/1999/xlink" width="220" height="220" viewBox="0 0 220 220">
  <defs>
    <clipPath id="a">
      <path d="M-82.4-126.1v-87.8a11.55,11.55,0,0,0-5.79-10l-76-43.9a11.54,11.54,0,0,0-11.56,0l-76,43.9a11.55,11.55,0,0,0-5.79,10v87.8a11.55,11.55,0,0,0,5.79,10l76,43.9a11.54,11.54,0,0,0,11.56,0l76-43.9A11.55,11.55,0,0,0-82.4-126.1Z" fill="none"/>
    </clipPath>
    <linearGradient id="b" x1="-32.78" y1="66.19" x2="-210.53" y2="-227.07" gradientUnits="userSpaceOnUse">
      <stop offset="0" stop-color="#08b0dc"/>
      <stop offset="0.32" stop-color="#34c5d4"/>
      <stop offset="0.6" stop-color="#54d4ce"/>
      <stop offset="0.84" stop-color="#67ddca"/>
      <stop offset="1" stop-color="#6ee0c9"/>
    </linearGradient>
    <linearGradient id="c" x1="196.85" y1="209.15" x2="31.47" y2="55.58" gradientUnits="userSpaceOnUse">
      <stop offset="0" stop-color="#117375"/>
      <stop offset="0.99" stop-color="#11c199"/>
    </linearGradient>
    <clipPath id="d">
      <path d="M104.86,19.93,16.23,84.78a8.82,8.82,0,0,0-3.18,9.82L45.92,196.48l1,3.13a8.81,8.81,0,0,0,8.39,6.11H164.81a8.83,8.83,0,0,0,8.39-6.11l2-6,31.92-99a8.8,8.8,0,0,0-3.18-9.82L115.27,19.93A8.81,8.81,0,0,0,104.86,19.93Z" fill="none"/>
    </clipPath>
    <linearGradient id="e" x1="105.78" y1="236.56" x2="96.41" y2="-41.03" gradientUnits="userSpaceOnUse">
      <stop offset="0.03" stop-color="#00957f"/>
      <stop offset="0.29" stop-color="#08cbb0"/>
      <stop offset="0.31" stop-color="#15cda9"/>
      <stop offset="0.46" stop-color="#59d686"/>
      <stop offset="0.6" stop-color="#92de68"/>
      <stop offset="0.73" stop-color="#bfe551"/>
      <stop offset="0.84" stop-color="#dfe940"/>
      <stop offset="0.93" stop-color="#f2ec36"/>
      <stop offset="1" stop-color="#f9ed32"/>
    </linearGradient>
    <linearGradient id="f" x1="105.64" y1="-0.63" x2="-60.12" y2="-152.53" gradientTransform="translate(19.78 170.28) rotate(-3.95)" gradientUnits="userSpaceOnUse">
      <stop offset="0.15" stop-color="#fff" stop-opacity="0"/>
      <stop offset="0.22" stop-color="#fff" stop-opacity="0.03"/>
      <stop offset="0.33" stop-color="#fff" stop-opacity="0.11"/>
      <stop offset="0.47" stop-color="#fff" stop-opacity="0.24"/>
      <stop offset="0.62" stop-color="#fff" stop-opacity="0.42"/>
      <stop offset="0.78" stop-color="#fff" stop-opacity="0.65"/>
      <stop offset="0.96" stop-color="#fff" stop-opacity="0.93"/>
      <stop offset="1" stop-color="#fff"/>
    </linearGradient>
    <linearGradient id="g" x1="92.07" y1="107.49" x2="-81.89" y2="82.64" gradientUnits="userSpaceOnUse">
      <stop offset="0.03" stop-color="#fff" stop-opacity="0"/>
      <stop offset="1" stop-color="#fff" stop-opacity="0.9"/>
    </linearGradient>
    <clipPath id="h">
      <rect x="-23.23" y="-51.12" width="264.02" height="284.02" fill="none"/>
    </clipPath>
  </defs>
  <title>gallery</title>
  <g style="isolation:isolate">
    <g clip-path="url(#a)">
      <polygon points="-235.07 -81.75 -165.26 4.78 -34.21 -157.22 54.55 -47.2 54.55 -274.07 -338.51 -274.07 -338.51 46.12 -235.07 -81.75" fill="url(#b)"/>
    </g>
    <path d="M103.83,6.91,5.18,79.1A10.55,10.55,0,0,0,1.37,90.85L38.1,204.71l1,3a10.55,10.55,0,0,0,10,7.31H171a10.54,10.54,0,0,0,10-7.31l2-6.32L218.75,90.85A10.54,10.54,0,0,0,215,79.1L116.29,6.91A10.56,10.56,0,0,0,103.83,6.91Z" fill="url(#c)"/>
    <g clip-path="url(#d)">
      <path d="M103-23.26C125.38,23.92,250,84.81,242.47,159.39c-8.1,80.86-158.55,100.25-235.22,58.35-4.3-2.83-6.4-3.6-9.86-6-19-12.9-31.74-30.34-33.95-52.34C-44,84.81,80.54,23.92,103-23.26Z" fill-rule="evenodd" fill="url(#e)"/>
      <path d="M82-26.06C108.65,21.12,256.91,82,248,156.6c-6,50.13-77.09,76.62-152,79.54,71.26-10.79,98.53-78.25,39.74-160.22C94,17.78,82-26.06,82-26.06Z" fill="#070707" fill-rule="evenodd" opacity="0.03"/>
      <path d="M-18,220.38c9.18-23.67,30.62-68.45,74.45-114.77A418.47,418.47,0,0,1,120,50.83q14.76-10.39,31.5-20.25C125.06-2,100.68-31.71,90.58-59.26c-16.45,75.83-129.73,180-114.41,297A166,166,0,0,1-18,220.38Z" fill-rule="evenodd" fill="url(#f)"/>
      <path d="M69.14,128.44c-5-63.61,6.23-120.34,21-165-3.22,4.84-6.45,9.53-9.55,14-18.52,26.8-37.88,53-54.29,81.15C4.7,95.82-11.95,137-9.28,180.73-8,201.64-2.55,221.65,8,239.22,9.91,194.75,28.32,148,69.14,128.44Z" fill-rule="evenodd" fill="url(#g)"/>
      <g clip-path="url(#h)">
        <g opacity="0.34" style="mix-blend-mode:multiply">
          <path d="M196.89,220.76q-10.8-13.15-21.61-26.57h-.08A950.78,950.78,0,0,1,41,194.25h-.08Q29.57,207.85,18.2,221.18c-.19.06-.13.32.08.34q30.8,2.83,61.71,3.66a.17.17,0,0,1,.13.3Q75,229.56,69.9,233.59a.17.17,0,0,0,.12.3q40.37,1.61,80.74-.23a.4.4,0,0,0,.31-.69q-4.56-3.84-9.11-7.72c-.13-.1,0-.29.13-.29q27.35-.93,54.62-3.42C197.19,221.5,197.33,220.89,196.89,220.76Z" fill="#009679"/>
        </g>
        <rect x="41.04" y="168.37" width="40.01" height="45.86" fill="#edbf5a"/>
        <polygon points="76.46 168.37 41.04 168.37 41.04 169.46 76.46 169.46 70.65 214.22 81.05 214.22 81.05 169.46 81.05 168.37 76.46 168.37" fill="#ddac4b"/>
        <path d="M81.05,166.18H40.9a1.09,1.09,0,0,0-1.09,1.1h0a1.09,1.09,0,0,0,1.09,1.09H81.05Z" fill="#a1621f"/>
        <rect x="141.86" y="172.79" width="33.93" height="41.44" fill="#edbf5a"/>
        <polygon points="175.78 172.79 146.19 172.79 141.86 172.79 141.86 174.03 141.86 214.22 150.91 214.22 146.19 174.03 175.78 174.03 175.78 172.79" fill="#ddac4b"/>
        <path d="M141.86,170.61h34.62a1.09,1.09,0,0,1,1.09,1.09h0a1.09,1.09,0,0,1-1.09,1.09H141.86Z" fill="#a1621f"/>
        <rect x="80.64" y="159.01" width="61.68" height="55.22" fill="#edbf5a"/>
        <rect x="80.64" y="159.01" width="61.68" height="1.44" fill="#edbf5a" opacity="0.5" style="mix-blend-mode:multiply"/>
        <path d="M143.38,156.57H79.57a1.22,1.22,0,0,0-1.22,1.22h0A1.22,1.22,0,0,0,79.57,159h63.81a1.22,1.22,0,0,0,1.22-1.22h0A1.22,1.22,0,0,0,143.38,156.57Z" fill="#a1621f"/>
        <path d="M113.37,187.35H110V170.29h-4.12V167.8l7.5-.73Z" fill="#fff"/>
      </g>
    </g>
    <path d="M153.68,81.69l-25.12-6.93a3.34,3.34,0,0,1-1.9-1.39L112.47,51.51a3.3,3.3,0,0,0-5.53,0L92.59,73.24a3.31,3.31,0,0,1-1.91,1.37L65.5,81.35a3.31,3.31,0,0,0-1.73,5.26L80,107a3.31,3.31,0,0,1,.71,2.24l-1.37,26a3.32,3.32,0,0,0,4.47,3.27l23.44-8.81a3.3,3.3,0,0,0,2.15-3.08l.16-32.74-.16,32.74a3.29,3.29,0,0,0,2.12,3.1l23.37,9a3.31,3.31,0,0,0,4.48-3.24l-1.17-26a3.32,3.32,0,0,1,.74-2.23L155.37,87A3.31,3.31,0,0,0,153.68,81.69Z" fill="#ffb0c8" opacity="0.2" style="mix-blend-mode:overlay"/>
    <polygon points="149.52 85.07 124.07 78.05 109.7 55.91 95.16 77.94 69.65 84.77 86.12 105.41 84.73 131.77 109.45 122.49 109.59 93.93 109.45 122.49 134.09 131.96 132.9 105.58 149.52 85.07" fill="#ffec36"/>
    <path d="M109.59,93.93l14.48-15.88,25.45,7Z" fill="#ffda29"/>
    <path d="M109.59,93.93l.11-38,14.37,22.14Z" fill="#ffbc11"/>
    <path d="M95.16,77.94l14.43,16,.11-38Z" fill="#ffec36"/>
    <path d="M69.65,84.77l25.51-6.83,14.43,16Z" fill="#ffdc33"/>
    <path d="M109.59,93.93,86.12,105.41,69.65,84.77Z" fill="#ffcc03"/>
    <path d="M109.59,93.93,84.73,131.77l1.39-26.36Z" fill="#ffec36"/>
    <path d="M109.59,93.93l-.14,28.56-24.72,9.28Z" fill="#ffbc11"/>
    <path d="M109.59,93.93l24.5,38-24.64-9.47Z" fill="#ffc92e"/>
    <path d="M132.9,105.58,109.59,93.93l24.5,38Z" fill="#ffd52e"/>
    <path d="M109.59,93.93l39.93-8.86L132.9,105.58Z" fill="#ffb91e"/>
  </g>
</svg>
</svg>
