<?xml version="1.0"?>
<svg xmlns="http://www.w3.org/2000/svg" xmlns:xlink="http://www.w3.org/1999/xlink" width="220px" height="220px" viewBox="0 0 220 220">
  <svg xmlns="http://www.w3.org/2000/svg" xmlns:xlink="http://www.w3.org/1999/xlink" xmlns:a="http://ns.adobe.com/AdobeSVGViewerExtensions/3.0/" version="1.1" x="0px" y="0px" width="220px" height="220px" viewBox="-12.51 -12.51 220 220" enable-background="new -12.51 -12.51 220 220" xml:space="preserve">
<g fill="#76C9C6">
<path fill-rule="evenodd" clip-rule="evenodd" d="M103.212,2.371l89.396,89.395c3.161,3.161,3.161,8.286,0,11.446  l-89.396,89.396c-3.16,3.161-8.285,3.161-11.446,0L2.371,103.212c-3.162-3.16-3.162-8.285,0-11.446L91.766,2.371  C94.927-0.791,100.052-0.791,103.212,2.371z"/>
</g>
</svg>
  <svg xmlns="http://www.w3.org/2000/svg" xmlns:xlink="http://www.w3.org/1999/xlink" xmlns:a="http://ns.adobe.com/AdobeSVGViewerExtensions/3.0/" version="1.1" x="0px" y="0px" width="220px" height="220px" viewBox="-2.514 -2.51 220 220" enable-background="new -2.514 -2.51 220 220" xml:space="preserve">
<g fill="#F0DA1A">
	<path d="M107.485,10c-1.926,0.037-3.747,0.72-5.188,1.961c-1.706,1.455-4.204,4.134-6.266,6.141L83.038,31.096   L57.051,57.083L31.064,83.069L18.071,96.063c-2.001,2.059-4.698,4.569-6.129,6.258c-1.235,1.444-1.911,3.267-1.941,5.193   c0.029,1.928,0.729,3.746,1.971,5.181c1.482,1.725,4.142,4.209,6.155,6.276l12.993,12.993l25.987,25.987l25.987,25.986   l12.994,12.994c2.055,1.996,4.578,4.71,6.249,6.116c1.447,1.229,3.274,1.899,5.198,1.923v0.004l0,0l0.021,3.542   c-5.791,0.311-9.53-4.753-13.975-9.078l-12.994-12.993l-25.987-25.987l-25.987-25.986l-12.993-12.994   c-4.303-4.461-9.433-8.169-9.165-13.954c-0.291-5.789,4.791-9.518,9.109-13.968l12.993-12.994l25.987-25.987L80.53,28.588   l12.994-12.994c4.455-4.313,8.174-9.412,13.961-9.141V10z"/>
	<path d="M107.485,0v3.544c-7.439-0.173-11.944,6.095-16.02,9.993L78.473,26.53L52.486,52.517L26.499,78.504   L13.506,91.498c-3.904,4.068-10.165,8.6-9.962,16.035c-0.159,7.443,6.128,11.92,10.017,16.003l12.993,12.994l25.987,25.986   l25.987,25.987l12.993,12.993c4.06,3.909,8.619,10.163,16.05,9.931l0.021,3.544c-4.215,0.012-8.473-1.526-11.681-4.259   c-2.963-2.591-4.552-4.449-6.896-6.71l-12.993-12.993l-25.987-25.987l-25.987-25.986l-12.994-12.993   c-2.251-2.325-4.139-3.976-6.688-6.854c-2.761-3.18-4.353-7.428-4.366-11.645c0.002-4.216,1.555-8.471,4.297-11.669   c2.577-2.936,4.445-4.545,6.703-6.882l12.994-12.994L49.98,50.011l25.987-25.987L88.96,11.031   c2.332-2.255,3.96-4.132,6.869-6.696C99.018,1.583,103.268,0.015,107.485,0z"/>

	<path d="M107.486,204.979c1.927-0.037,3.747-0.72,5.187-1.96c1.707-1.458,4.204-4.135,6.268-6.143l12.993-12.994   l25.987-25.986l25.986-25.986l12.994-12.993c2.001-2.06,4.697-4.569,6.129-6.259c1.235-1.443,1.911-3.267,1.941-5.192   c-0.028-1.927-0.729-3.745-1.972-5.182c-1.48-1.723-4.142-4.208-6.154-6.275l-12.993-12.993l-25.987-25.987l-25.986-25.987   l-12.994-12.994c-2.055-1.996-4.577-4.709-6.249-6.117c-1.447-1.229-3.273-1.899-5.198-1.923v-0.004l0,0l-0.021-3.542   c5.792-0.311,9.529,4.754,13.975,9.079l12.993,12.994l25.987,25.987l25.986,25.987L199.353,93.5   c4.303,4.46,9.432,8.169,9.164,13.955c0.292,5.79-4.791,9.518-9.109,13.968l-12.993,12.993l-25.987,25.987L134.44,186.39   l-12.993,12.993c-4.456,4.313-8.174,9.414-13.961,9.142V204.979z"/>
	<path d="M107.486,214.979v-3.544c7.439,0.173,11.943-6.097,16.019-9.994l12.994-12.993l25.986-25.986   l25.987-25.987l12.993-12.993c3.903-4.067,10.165-8.6,9.962-16.035c0.158-7.442-6.128-11.92-10.017-16.003l-12.993-12.994   L162.43,52.462l-25.987-25.987L123.45,13.482c-4.061-3.909-8.618-10.164-16.05-9.931l-0.021-3.544   c4.215-0.012,8.473,1.526,11.681,4.26c2.963,2.59,4.553,4.449,6.896,6.709l12.993,12.993l25.987,25.987l25.987,25.987   l12.993,12.993c2.251,2.325,4.139,3.974,6.689,6.855c2.759,3.179,4.353,7.426,4.365,11.645   c-0.002,4.216-1.554,8.471-4.297,11.669c-2.577,2.936-4.445,4.545-6.703,6.882l-12.993,12.994l-25.987,25.986l-25.986,25.986   l-12.994,12.993c-2.33,2.255-3.961,4.134-6.866,6.695C115.955,213.397,111.703,214.964,107.486,214.979z"/>
</g>
</svg>
  <svg xmlns="http://www.w3.org/2000/svg" xmlns:xlink="http://www.w3.org/1999/xlink" xmlns:a="http://ns.adobe.com/AdobeSVGViewerExtensions/3.0/" version="1.1" x="0px" y="0px" width="220px" height="220px" viewBox="-66.675 -61.795 220 220" enable-background="new -66.675 -61.795 220 220" xml:space="preserve">
<g fill="#F0DA1A">
<path fill-rule="evenodd" clip-rule="evenodd" d="M86.65,31.478l-29.045-5.579L43.325,0L29.048,25.899L0,31.478  l20.218,21.585L16.55,82.409l26.775-12.561l26.78,12.561L66.43,53.063L86.65,31.478z"/>
</g>
</svg>
  <svg xmlns="http://www.w3.org/2000/svg" xmlns:xlink="http://www.w3.org/1999/xlink" xmlns:a="http://ns.adobe.com/AdobeSVGViewerExtensions/3.0/" version="1.1" x="0px" y="0px" width="220px" height="220px" viewBox="-15.221 -169.576 220 220" enable-background="new -15.221 -169.576 220 220" xml:space="preserve">

	<g fill="#45ADBD">
		<path d="M189.558,0H0l8.081,15.555L0,31.85h189.558l-8.539-16.295L189.558,0z"/>
	</g>
</svg>
  <svg xmlns="http://www.w3.org/2000/svg" xmlns:xlink="http://www.w3.org/1999/xlink" xmlns:a="http://ns.adobe.com/AdobeSVGViewerExtensions/3.0/" version="1.1" x="0px" y="0px" width="220px" height="220px" viewBox="-15.221 -169.576 220 220" enable-background="new -15.221 -169.576 220 220" xml:space="preserve">

	<path fill-opacity="0.15" d="M186.178,2l-6.912,12.592l-0.517,0.94l0.498,0.951l7.005,13.366H3.224l6.649-13.406l0.451-0.91l-0.468-0.9  L3.293,2H186.178 M189.558,0H0l8.081,15.555L0,31.85h189.558l-8.539-16.295L189.558,0L189.558,0z"/>
</svg>
  <svg xmlns="http://www.w3.org/2000/svg" width="220px" height="220px" viewBox="-110 -191 220 220" version="1.1">
	<text text-anchor="middle" fill="#FFFFFF" style="font-size:15px; font-family:Arial, Helvetica, sans-serif;">GOLD STAR</text>
</svg>
</svg>
