<?xml version="1.0"?>
<svg xmlns="http://www.w3.org/2000/svg" xmlns:xlink="http://www.w3.org/1999/xlink" width="220px" height="220px" viewBox="0 0 220 220">
  <svg xmlns="http://www.w3.org/2000/svg" xmlns:xlink="http://www.w3.org/1999/xlink" xmlns:a="http://ns.adobe.com/AdobeSVGViewerExtensions/3.0/" version="1.1" x="0px" y="0px" width="220px" height="220px" viewBox="-18 -22.072 220 220" enable-background="new -18 -22.072 220 220" xml:space="preserve">
	<g fill="#7FD9D6">
		<path d="M143.402,175.856H40.596c-3.825,0-7.213-2.463-8.396-6.101L0.433,71.984   c-1.182-3.638,0.113-7.622,3.207-9.87L86.811,1.686c3.095-2.249,7.285-2.248,10.379,0l83.171,60.428   c3.095,2.248,4.388,6.232,3.208,9.87l-31.77,97.771C150.617,173.393,147.226,175.856,143.402,175.856L143.402,175.856z"/>
	</g>
</svg>
  <svg xmlns="http://www.w3.org/2000/svg" xmlns:xlink="http://www.w3.org/1999/xlink" xmlns:a="http://ns.adobe.com/AdobeSVGViewerExtensions/3.0/" version="1.1" x="0px" y="0px" width="220px" height="220px" viewBox="-8.993 -13.028 220 220" enable-background="new -8.993 -13.028 220 220" xml:space="preserve">
	<g fill="#3A919E">
		<path d="M101.006,10c1.801,0,3.603,0.556,5.133,1.668l82.267,59.771c3.062,2.223,4.341,6.165,3.173,9.762   l-31.424,96.71c-1.168,3.598-4.522,6.033-8.305,6.033H50.162c-3.783,0-7.136-2.436-8.305-6.033l-31.422-96.71   c-1.169-3.598,0.112-7.539,3.172-9.762l82.268-59.771C97.404,10.556,99.206,10,101.006,10 M101.007,0   c-3.982,0-7.79,1.237-11.011,3.578L7.729,63.348c-6.585,4.785-9.32,13.201-6.805,20.943L32.346,181   c2.516,7.742,9.675,12.943,17.815,12.943h101.689c8.143,0,15.303-5.202,17.816-12.945l31.423-96.708   c2.515-7.746-0.222-16.162-6.808-20.944l-82.265-59.77C108.795,1.237,104.988,0,101.007,0L101.007,0z"/>
	</g>
</svg>
  <svg xmlns="http://www.w3.org/2000/svg" xmlns:xlink="http://www.w3.org/1999/xlink" xmlns:a="http://ns.adobe.com/AdobeSVGViewerExtensions/3.0/" version="1.1" x="0px" y="0px" width="220px" height="220px" viewBox="-72.152 -63.087 220 220" enable-background="new -72.152 -63.087 220 220" xml:space="preserve">

<g fill="#3A919E"> 
<path d="M73.881,48.178c-0.834-1.039-1.457-1.458-1.666-2.497c1.666-0.835,3.328-4.163,3.328-5.205  c-0.208-7.072-6.866-8.53-6.866-8.53s0,0-19.979,0c-1.457-0.208-0.416-4.164,0.417-5.62c3.537-6.244,5.618-11.861,5.618-14.777  C53.484-2.811,43.703-0.311,43.287,1.143c-0.208,14.569-3.54,17.898-7.283,20.397c-3.748,2.496-4.163,5.411-8.533,15.397  c-4.37,9.99-9.157,6.661-9.157,6.661s0.208,3.121,0.208,32.464c24.557,4.581,35.17,3.956,41.623,3.33  c6.451-0.622,8.532-4.992,8.532-7.282c0-2.706,0.832-4.165,1.873-4.787c4.578-3.746,3.121-4.994,1.874-7.7  c-1.251-2.707-0.833-3.54,1.247-5.411C77.625,52.338,74.712,49.218,73.881,48.178z M13.937,42.557H1.256  C0.562,42.557,0,43.12,0,43.815v33.073c0,0.693,0.562,1.259,1.256,1.259h12.681c0.693,0,1.254-0.565,1.254-1.259V43.815  C15.191,43.12,14.63,42.557,13.937,42.557z"/>
</g>
</svg>
  <svg xmlns="http://www.w3.org/2000/svg" xmlns:xlink="http://www.w3.org/1999/xlink" xmlns:a="http://ns.adobe.com/AdobeSVGViewerExtensions/3.0/" version="1.1" x="0px" y="0px" width="220px" height="220px" viewBox="-15.221 -169.576 220 220" enable-background="new -15.221 -169.576 220 220" xml:space="preserve">

	<g fill="#E34C82">
		<path d="M189.558,0H0l8.081,15.555L0,31.85h189.558l-8.539-16.295L189.558,0z"/>
	</g>
</svg>
  <svg xmlns="http://www.w3.org/2000/svg" xmlns:xlink="http://www.w3.org/1999/xlink" xmlns:a="http://ns.adobe.com/AdobeSVGViewerExtensions/3.0/" version="1.1" x="0px" y="0px" width="220px" height="220px" viewBox="-15.221 -169.576 220 220" enable-background="new -15.221 -169.576 220 220" xml:space="preserve">

	<path fill-opacity="0.15" d="M186.178,2l-6.912,12.592l-0.517,0.94l0.498,0.951l7.005,13.366H3.224l6.649-13.406l0.451-0.91l-0.468-0.9  L3.293,2H186.178 M189.558,0H0l8.081,15.555L0,31.85h189.558l-8.539-16.295L189.558,0L189.558,0z"/>
</svg>
  <svg xmlns="http://www.w3.org/2000/svg" width="220px" height="220px" viewBox="-110 -191 220 220" version="1.1">
	<text text-anchor="middle" fill="#F2F2F2" style="font-size:15px; font-family:Arial, Helvetica, sans-serif;">GREAT JOB</text>
</svg>
</svg>
