<?xml version="1.0"?>
<svg xmlns="http://www.w3.org/2000/svg" xmlns:xlink="http://www.w3.org/1999/xlink" width="220px" height="220px" viewBox="0 0 220 220">
  <svg xmlns="http://www.w3.org/2000/svg" xmlns:xlink="http://www.w3.org/1999/xlink" width="220" height="220" viewBox="0 0 220 220">
  <defs>
    <linearGradient id="a" x1="196.85" y1="209.15" x2="31.47" y2="55.58" gradientUnits="userSpaceOnUse">
      <stop offset="0" stop-color="#87009a"/>
      <stop offset="1" stop-color="#cb36c2"/>
    </linearGradient>
    <clipPath id="b">
      <path d="M104.86,19.93,16.23,84.78a8.82,8.82,0,0,0-3.18,9.82L45.92,196.48l1,3.13a8.81,8.81,0,0,0,8.39,6.11H164.81a8.83,8.83,0,0,0,8.39-6.11l2-6,31.92-99a8.8,8.8,0,0,0-3.18-9.82L115.27,19.93A8.81,8.81,0,0,0,104.86,19.93Z" fill="none"/>
    </clipPath>
    <linearGradient id="c" x1="-36.88" y1="107.98" x2="242.8" y2="107.98" gradientUnits="userSpaceOnUse">
      <stop offset="0" stop-color="#5394d0"/>
      <stop offset="1" stop-color="#3edbbc"/>
    </linearGradient>
    <linearGradient id="d" x1="80.16" y1="135.2" x2="21.38" y2="98.76" gradientUnits="userSpaceOnUse">
      <stop offset="0" stop-color="#0b3b5f"/>
      <stop offset="1" stop-color="#354c72"/>
    </linearGradient>
    <linearGradient id="e" x1="23.41" y1="141.73" x2="67.75" y2="141.73" gradientUnits="userSpaceOnUse">
      <stop offset="0.01" stop-color="#afdac7"/>
      <stop offset="0.99" stop-color="#9ae69d"/>
    </linearGradient>
    <linearGradient id="f" x1="143.7" y1="120.78" x2="182.61" y2="120.78" xlink:href="#e"/>
    <linearGradient id="g" x1="152.31" y1="141.73" x2="196.65" y2="141.73" gradientUnits="userSpaceOnUse">
      <stop offset="0.01" stop-color="#62c1c5"/>
      <stop offset="0.99" stop-color="#79cbcd"/>
    </linearGradient>
    <linearGradient id="h" x1="55.84" y1="121.76" x2="160.54" y2="121.76" gradientUnits="userSpaceOnUse">
      <stop offset="0" stop-color="#f3b433"/>
      <stop offset="0.01" stop-color="#f4b733"/>
      <stop offset="0.06" stop-color="#f7ca33"/>
      <stop offset="0.11" stop-color="#f8d433"/>
      <stop offset="0.17" stop-color="#f9d833"/>
      <stop offset="1" stop-color="#f3e833"/>
    </linearGradient>
    <linearGradient id="i" x1="55.84" y1="134.06" x2="160.55" y2="134.06" gradientUnits="userSpaceOnUse">
      <stop offset="0.01" stop-color="#0f0a3c"/>
      <stop offset="0.99" stop-color="#365f66"/>
    </linearGradient>
    <linearGradient id="j" x1="133.73" y1="104.41" x2="152.42" y2="104.41" gradientTransform="translate(205.51 -61.34) rotate(74.52)" gradientUnits="userSpaceOnUse">
      <stop offset="0" stop-color="#009f9d"/>
      <stop offset="1" stop-color="#00c19d"/>
    </linearGradient>
    <clipPath id="k">
      <path d="M435,18.35,448.78,49a7.94,7.94,0,0,0,4,4l30.68,13.67a7.91,7.91,0,0,1,4.18,10l-12,31.39a7.92,7.92,0,0,0,0,5.65l12,31.37a7.91,7.91,0,0,1-4.15,10l-30.65,13.75a7.9,7.9,0,0,0-4,4l-13.67,30.69a7.92,7.92,0,0,1-10,4.17l-31.4-12a7.92,7.92,0,0,0-5.65,0l-31.36,12a7.9,7.9,0,0,1-10.06-4.15L333,173.06a7.9,7.9,0,0,0-4-4L298.32,155.4a7.9,7.9,0,0,1-4.17-10l12-31.4a7.92,7.92,0,0,0,0-5.65L294.06,77a7.91,7.91,0,0,1,4.15-10l30.65-13.75a7.9,7.9,0,0,0,4-4l13.67-30.69a7.92,7.92,0,0,1,10.05-4.17l31.39,12a7.92,7.92,0,0,0,5.65,0L425,14.2A7.92,7.92,0,0,1,435,18.35Z" fill="none"/>
    </clipPath>
    <clipPath id="l">
      <path d="M197.94-126.1v-87.8a11.55,11.55,0,0,0-5.79-10l-76-43.9a11.54,11.54,0,0,0-11.56,0l-76,43.9a11.57,11.57,0,0,0-5.78,10v87.8a11.57,11.57,0,0,0,5.78,10l76,43.9a11.54,11.54,0,0,0,11.56,0l76-43.9A11.55,11.55,0,0,0,197.94-126.1Z" fill="none"/>
    </clipPath>
    <clipPath id="m">
      <rect x="175.9" y="-85.79" width="52.6" height="61.03" fill="none"/>
    </clipPath>
  </defs>
  <title>gallery</title>
  <g style="isolation:isolate">
    <path d="M103.83,6.91,5.18,79.1A10.55,10.55,0,0,0,1.37,90.85L38.1,204.71l1,3a10.55,10.55,0,0,0,10,7.31H171a10.54,10.54,0,0,0,10-7.31l2-6.32L218.75,90.85A10.54,10.54,0,0,0,215,79.1L116.29,6.91A10.56,10.56,0,0,0,103.83,6.91Z" fill="url(#a)"/>
    <g clip-path="url(#b)">
      <path d="M103-23.26C125.38,23.92,250,84.81,242.47,159.39c-8.1,80.86-158.55,100.25-235.22,58.35-4.3-2.83-6.4-3.6-9.86-6-19-12.9-31.74-30.34-33.95-52.34C-44,84.81,80.54,23.92,103-23.26Z" fill-rule="evenodd" fill="url(#c)"/>
      <path d="M70.13,112.75c6.14,10.11,8.05,22.79,4.32,35.74-.07.26-.15.53-.23.79l-.82-.16a45.41,45.41,0,0,1-24-12.91c-.45-.47-.88-.94-1.31-1.42A42.81,42.81,0,0,1,37.5,108.48c0-.41,0-.83,0-1.26a47.63,47.63,0,0,1,1.89-14.14c.08-.27.15-.53.24-.8l.81.16A45.41,45.41,0,0,1,65,106c.33.36.65.72,1,1.09A42.76,42.76,0,0,1,70.13,112.75Z" fill="url(#d)"/>
      <path d="M66,107.05l-5.35,18.68,13.82,22.76c-.07.26-.15.53-.23.79l-.82-.16L67,138.57l-17.62-2.36c-.45-.47-.88-.94-1.31-1.42l18.11,2.43-15.9-26.17L37.5,108.48c0-.41,0-.83,0-1.26l11.94,2.4-10-16.54c.08-.27.15-.53.24-.8l.81.16L59.76,124.3,65,106C65.34,106.32,65.66,106.68,66,107.05Z" fill="#245a82"/>
      <path d="M52.48,131.44a35.58,35.58,0,0,1,15.17,24.5c0,.22.07.44.1.66l-.65.16a36.46,36.46,0,0,1-21.81-1.29l-1.42-.59a34.24,34.24,0,0,1-16.52-15.56c-.16-.3-.31-.6-.46-.9a38.3,38.3,0,0,1-3.39-10.91l-.09-.66.64-.16a36.36,36.36,0,0,1,22.43,1.54l1.07.46A33.92,33.92,0,0,1,52.48,131.44Z" fill="url(#e)"/>
      <path d="M47.55,128.69,50,144.07l17.7,11.87c0,.22.07.44.1.66l-.65.16-8.21-5.51-13.6,4.22-1.42-.59,14-4.33L37.48,136.89l-10.13,2.43c-.16-.3-.31-.6-.46-.9l9.48-2.28L23.5,127.51l-.09-.66.64-.16,24.79,16.63-2.36-15.09Z" fill="#fff"/>
      <path d="M149.93,112.75c-6.15,10.11-8.05,22.79-4.33,35.74.07.26.15.53.23.79l.82-.16a45.48,45.48,0,0,0,24-12.91c.45-.47.88-.94,1.3-1.42a42.76,42.76,0,0,0,10.56-26.31c0-.41,0-.83,0-1.26a47.64,47.64,0,0,0-1.9-14.14c-.07-.27-.15-.53-.23-.8l-.82.16A45.48,45.48,0,0,0,155,106c-.33.36-.65.72-1,1.09A41.89,41.89,0,0,0,149.93,112.75Z" fill="url(#f)"/>
      <path d="M154.08,107.05l5.35,18.68L145.6,148.49c.07.26.15.53.23.79l.82-.16,6.42-10.55,17.62-2.36c.45-.47.88-.94,1.3-1.42l-18.11,2.43,15.91-26.17,12.76-2.57c0-.41,0-.83,0-1.26l-11.95,2.4,10-16.54c-.07-.27-.15-.53-.23-.8l-.82.16L160.29,124.3,155,106C154.71,106.32,154.39,106.68,154.08,107.05Z" fill="#fff"/>
      <path d="M167.57,131.44a35.57,35.57,0,0,0-15.16,24.5c0,.22-.07.44-.1.66l.64.16a36.46,36.46,0,0,0,21.81-1.29l1.42-.59a34.26,34.26,0,0,0,16.53-15.56c.16-.3.31-.6.46-.9a38.29,38.29,0,0,0,3.38-10.91c0-.22.07-.44.1-.66l-.65-.16a36.32,36.32,0,0,0-22.42,1.54l-1.07.46A34,34,0,0,0,167.57,131.44Z" fill="url(#g)"/>
      <path d="M172.51,128.69l-2.4,15.38-17.7,11.87c0,.22-.07.44-.1.66l.64.16,8.22-5.51,13.59,4.22,1.42-.59-14-4.33,20.35-13.66,10.14,2.43c.16-.3.31-.6.46-.9l-9.49-2.28,12.87-8.63c0-.22.07-.44.1-.66l-.65-.16-24.78,16.63,2.36-15.09Z" fill="#fff"/>
      <path d="M68.11,194.09a.72.72,0,0,0-.4-1.23l-2.15-.31a.71.71,0,0,1-.54-.39l-1-1.95a.72.72,0,0,0-1.29,0l-1,1.95a.72.72,0,0,1-.54.39l-2.15.31a.72.72,0,0,0-.4,1.23l1.55,1.52a.71.71,0,0,1,.21.63l-.37,2.14a.72.72,0,0,0,1,.76l1.92-1a.72.72,0,0,1,.67,0l1.92,1a.72.72,0,0,0,1-.76l-.36-2.14a.7.7,0,0,1,.2-.63Z" fill="#b0d9c7" opacity="0.45"/>
      <path d="M28.49,111.45a.4.4,0,0,0-.42-.57l-1.18.2a.41.41,0,0,1-.35-.11l-.83-.86a.39.39,0,0,0-.67.22l-.18,1.18a.37.37,0,0,1-.22.29l-1.07.53a.4.4,0,0,0,0,.71l1.07.53a.4.4,0,0,1,.22.3l.17,1.18a.39.39,0,0,0,.67.22l.84-.85a.38.38,0,0,1,.35-.11l1.17.2a.39.39,0,0,0,.42-.57l-.55-1.06a.4.4,0,0,1,0-.37Z" fill="#b0d9c7" opacity="0.45"/>
      <path d="M63.74,62.49l-1.6-1a.61.61,0,0,1-.3-.5l-.12-1.86a.61.61,0,0,0-1-.43L59.29,60a.64.64,0,0,1-.56.13l-1.82-.47a.62.62,0,0,0-.72.84l.73,1.73a.61.61,0,0,1-.05.57l-1,1.58a.62.62,0,0,0,.57,1l1.87-.16a.6.6,0,0,1,.53.22L60,66.8a.62.62,0,0,0,1.09-.25l.42-1.83a.58.58,0,0,1,.37-.43l1.74-.69A.62.62,0,0,0,63.74,62.49Z" fill="#b0d9c7" opacity="0.45"/>
      <path d="M126,182.53l-1.6-1a.61.61,0,0,1-.3-.5l-.12-1.86a.61.61,0,0,0-1-.43L121.58,180a.65.65,0,0,1-.57.13l-1.81-.47a.62.62,0,0,0-.72.84l.73,1.73a.61.61,0,0,1,0,.57l-1,1.58a.62.62,0,0,0,.57,1l1.87-.16a.6.6,0,0,1,.53.22l1.19,1.44a.62.62,0,0,0,1.08-.25l.42-1.83a.61.61,0,0,1,.38-.43l1.74-.69A.62.62,0,0,0,126,182.53Z" fill="#b0d9c7" opacity="0.45"/>
      <path d="M192.38,111.91l-.67-.41a.24.24,0,0,1-.12-.2l-.05-.79a.26.26,0,0,0-.43-.18l-.6.52a.27.27,0,0,1-.23.05l-.76-.19a.26.26,0,0,0-.31.35l.31.72a.26.26,0,0,1,0,.24l-.42.67a.26.26,0,0,0,.24.4l.78-.07a.25.25,0,0,1,.23.09l.5.61a.26.26,0,0,0,.45-.11l.18-.77a.26.26,0,0,1,.16-.18l.73-.29A.25.25,0,0,0,192.38,111.91Z" fill="#b0d9c7" opacity="0.33"/>
      <path d="M155.65,80.28l-.67-.4a.32.32,0,0,1-.13-.21l0-.79a.26.26,0,0,0-.43-.18l-.6.52a.24.24,0,0,1-.23.06l-.76-.2a.26.26,0,0,0-.31.35l.31.73a.26.26,0,0,1,0,.24l-.42.66a.26.26,0,0,0,.24.4l.78-.07a.28.28,0,0,1,.23.09l.5.61a.26.26,0,0,0,.45-.11l.18-.76a.27.27,0,0,1,.15-.19l.74-.29A.25.25,0,0,0,155.65,80.28Z" fill="#b0d9c7" opacity="0.45"/>
      <path d="M77,52l-.68-.41a.24.24,0,0,1-.12-.21l0-.78a.26.26,0,0,0-.43-.18l-.59.52a.3.3,0,0,1-.24,0l-.76-.19a.25.25,0,0,0-.3.35l.3.72a.23.23,0,0,1,0,.24l-.42.67a.26.26,0,0,0,.24.39l.79-.06a.25.25,0,0,1,.22.09l.5.6a.25.25,0,0,0,.45-.1l.18-.77a.26.26,0,0,1,.16-.18l.73-.29A.26.26,0,0,0,77,52Z" fill="#b0d9c7" opacity="0.45"/>
      <path d="M106.56,38.14l-.68-.4a.26.26,0,0,1-.12-.21l-.05-.78a.26.26,0,0,0-.43-.18l-.59.51a.27.27,0,0,1-.24.06l-.76-.2a.26.26,0,0,0-.3.36l.3.72a.23.23,0,0,1,0,.24l-.42.66a.26.26,0,0,0,.24.4l.79-.07a.25.25,0,0,1,.22.1l.5.6a.26.26,0,0,0,.45-.11l.18-.76a.26.26,0,0,1,.16-.18l.73-.29A.27.27,0,0,0,106.56,38.14Z" fill="#b0d9c7" opacity="0.45"/>
      <path d="M105.67,188.71l-.67-.4a.28.28,0,0,1-.13-.21l-.05-.78a.26.26,0,0,0-.43-.18l-.59.51a.24.24,0,0,1-.23.06l-.76-.2a.27.27,0,0,0-.31.36l.31.72a.29.29,0,0,1,0,.24l-.42.66a.26.26,0,0,0,.24.4l.78-.07a.26.26,0,0,1,.22.1l.51.6a.26.26,0,0,0,.45-.1l.18-.77a.23.23,0,0,1,.15-.18l.73-.29A.26.26,0,0,0,105.67,188.71Z" fill="#b0d9c7" opacity="0.45"/>
      <path d="M157.39,171.63l-.67-.4a.27.27,0,0,1-.13-.21l-.05-.78a.26.26,0,0,0-.43-.18l-.59.51a.26.26,0,0,1-.24.06l-.76-.2a.26.26,0,0,0-.3.35l.31.73a.29.29,0,0,1,0,.24l-.42.66a.26.26,0,0,0,.24.4l.78-.07a.26.26,0,0,1,.22.09l.5.61a.26.26,0,0,0,.46-.11l.17-.76a.28.28,0,0,1,.16-.19l.73-.28A.27.27,0,0,0,157.39,171.63Z" fill="#b0d9c7" opacity="0.45"/>
      <path d="M76.06,172.94l-.67-.4a.3.3,0,0,1-.13-.21l0-.78a.26.26,0,0,0-.43-.18l-.6.51a.24.24,0,0,1-.23.06l-.76-.2a.27.27,0,0,0-.31.36l.31.72a.26.26,0,0,1,0,.24l-.42.66a.26.26,0,0,0,.24.4l.78-.07a.26.26,0,0,1,.23.1l.5.6a.26.26,0,0,0,.45-.11l.18-.76a.27.27,0,0,1,.15-.18l.74-.29A.26.26,0,0,0,76.06,172.94Z" fill="#b0d9c7" opacity="0.45"/>
      <path d="M134.57,121.66l-.68-.41a.24.24,0,0,1-.12-.2l-.05-.79a.26.26,0,0,0-.43-.18l-.6.52a.24.24,0,0,1-.23.05l-.76-.19a.26.26,0,0,0-.31.35l.31.72a.25.25,0,0,1,0,.25l-.42.66a.26.26,0,0,0,.24.4l.78-.07a.28.28,0,0,1,.23.09l.5.61a.26.26,0,0,0,.45-.11l.18-.77a.26.26,0,0,1,.16-.18l.73-.29A.26.26,0,0,0,134.57,121.66Z" fill="#b0d9c7" opacity="0.33"/>
      <path d="M139.88,59.53l-1.14-.48a.39.39,0,0,1-.24-.29l-.26-1.21a.41.41,0,0,0-.71-.18l-.8.94a.43.43,0,0,1-.36.14l-1.23-.13a.41.41,0,0,0-.39.62L135.4,60a.43.43,0,0,1,0,.38l-.5,1.13a.4.4,0,0,0,.46.56l1.21-.28a.39.39,0,0,1,.36.09l.92.83a.41.41,0,0,0,.68-.27l.1-1.23a.38.38,0,0,1,.21-.32l1.07-.62A.41.41,0,0,0,139.88,59.53Z" fill="#b0d9c7" opacity="0.45"/>
      <path d="M98.2,70.62l-.58-1a.36.36,0,0,1,0-.35l.48-1a.38.38,0,0,0-.43-.53L96.54,68a.39.39,0,0,1-.34-.09l-.83-.77a.38.38,0,0,0-.63.24l-.1,1.13a.42.42,0,0,1-.2.3l-1,.55a.37.37,0,0,0,0,.67l1,.45a.35.35,0,0,1,.22.28L95,71.86a.38.38,0,0,0,.65.18l.75-.86a.38.38,0,0,1,.33-.12l1.13.13A.38.38,0,0,0,98.2,70.62Z" fill="#b0d9c7" opacity="0.45"/>
      <path d="M161.66,89.47H64.16A4.54,4.54,0,0,0,59.62,94l-.16,31.51v33.27A2.5,2.5,0,0,0,62,161.26h99.71a2.51,2.51,0,0,0,2.5-2.49V92A2.51,2.51,0,0,0,161.66,89.47Z" fill="#3b9bff" opacity="0.12" style="mix-blend-mode:multiply"/>
      <path d="M158.05,85.86H60.55A4.54,4.54,0,0,0,56,90.38l-.17,31.51v33.27a2.51,2.51,0,0,0,2.5,2.49h99.71a2.5,2.5,0,0,0,2.49-2.49V88.35A2.5,2.5,0,0,0,158.05,85.86Z" fill="url(#h)"/>
      <path d="M136.63,124.89a2,2,0,0,0-3.21,0l-13,15.38a2,2,0,0,1-3.21,0l-24.47-29a2,2,0,0,0-3.21,0l-33.73,40v3.9a2.51,2.51,0,0,0,2.5,2.49h99.71a2.51,2.51,0,0,0,2.5-2.49v-1.9Z" fill="url(#i)"/>
      <circle cx="143.08" cy="104.41" r="9.35" transform="translate(4.26 214.42) rotate(-74.52)" fill="url(#j)"/>
    </g>
    <g clip-path="url(#k)">
      <path d="M240.61,109.78c-4.53,8.66-9,17.38-13.15,26.27s-8.2,17.92-11.58,27.4c-.84,2.37-1.64,4.78-2.37,7.24a80.14,80.14,0,0,0-2.17,9,38.81,38.81,0,0,0-.59,9.78,19.29,19.29,0,0,0,2.65,8.74,12.06,12.06,0,0,0,3.15,3.38,12.64,12.64,0,0,0,4.18,1.94,22.46,22.46,0,0,0,9.22.29,41.47,41.47,0,0,0,9.49-2.78c1.55-.67,3.09-1.39,4.58-2.2.83-.41,1.35-.73,1.93-1.06s1.16-.68,1.72-1c9.05-5.66,16.45-12.76,23.26-20.14a261.67,261.67,0,0,0,18.71-23.24c11.57-16,21.87-32.66,31.81-49.46,19.82-33.62,37.94-68,57.36-101.39,9.75-16.64,19.76-33.15,31.08-48.34,5.68-7.52,11.72-14.8,18.46-20.61a51.16,51.16,0,0,1,5.15-3.92,30.66,30.66,0,0,1,2.64-1.58c.44-.24.88-.48,1.32-.67l.66-.31.56-.23a11.38,11.38,0,0,1,8.43-.32,7.17,7.17,0,0,1,3.07,2.1,6.83,6.83,0,0,1,1.39,3.43,13.09,13.09,0,0,1-.09,3.75,17.23,17.23,0,0,1-.36,1.82l-.13.58c-.05.22-.12.45-.18.67-.13.44-.24.88-.38,1.33a81.44,81.44,0,0,1-4.33,10.85c-1.71,3.62-3.6,7.21-5.62,10.77-4,7.11-8.48,14.1-13.1,21S418-3.42,413.05,3.34c-19.67,27-40.66,53.28-61.49,79.72-10.43,13.21-20.85,26.46-31.11,39.88s-20.35,27-29.87,41.16c-4.74,7.09-9.34,14.32-13.54,22a131.15,131.15,0,0,0-5.82,12,65.37,65.37,0,0,0-2.63,7.64,33.46,33.46,0,0,0-1.23,8.51,18.89,18.89,0,0,0,1.71,8,13.61,13.61,0,0,0,5.65,5.91c4.82,2.72,10.77,3,16.6,2.37.73-.09,1.46-.21,2.19-.31l1.1-.15.87-.17c1.15-.2,2.29-.44,3.41-.72,2.26-.52,4.46-1.18,6.63-1.9A96.76,96.76,0,0,0,318,222a150,150,0,0,0,22.23-14.1A250.44,250.44,0,0,0,360,191.19a466.45,466.45,0,0,0,35.32-37c22.19-25.73,42.49-52.8,62.25-80.14S496.39,19,515.87-8.39c9.75-13.64,19.58-27.22,29.9-40.24,5.17-6.5,10.47-12.86,16-18.77a112.28,112.28,0,0,1,8.58-8.25A48.76,48.76,0,0,1,574.82-79a19.84,19.84,0,0,1,4.2-2.25l-5-13.86a35.14,35.14,0,0,0-7.36,3.84,65.82,65.82,0,0,0-5.78,4.4,124.6,124.6,0,0,0-9.76,9.37c-6.05,6.41-11.54,13-16.87,19.73-10.62,13.41-20.54,27.11-30.36,40.85-19.59,27.5-38.63,55.19-58.27,82.38s-39.73,53.95-61.45,79.11A449.69,449.69,0,0,1,350,180.38a237.5,237.5,0,0,1-18.64,15.7,135.69,135.69,0,0,1-20,12.73,83.86,83.86,0,0,1-10.51,4.47c-1.77.58-3.54,1.12-5.31,1.53-.89.22-1.78.4-2.66.56l-.65.12-.36.06-.73.1a11.27,11.27,0,0,1-5.82-.45,3.79,3.79,0,0,1-2-2,6.39,6.39,0,0,1-.35-2.91,15.13,15.13,0,0,1,.59-2.89c.3-1,.55-1.68,1.36-3.71A114.25,114.25,0,0,1,290,193.13c3.85-7,8.25-14,12.84-20.82,9.22-13.72,19.21-27.12,29.35-40.43s20.54-26.49,31-39.69C383.94,65.77,405,39.44,425,12c5-6.87,9.89-13.82,14.65-20.93s9.37-14.36,13.68-22c2.15-3.79,4.21-7.68,6.12-11.73a96.33,96.33,0,0,0,5.1-12.85c.18-.57.33-1.17.5-1.76.08-.29.17-.58.24-.88l.24-1c.2-.82.36-1.6.48-2.39s.3-1.59.36-2.38a28.1,28.1,0,0,0-.32-9.39,19.57,19.57,0,0,0-3.91-8.25,20.24,20.24,0,0,0-7.36-5.42,26,26,0,0,0-10.52-2.15,30.19,30.19,0,0,0-10.81,2.2l-1.21.5-1,.49c-.71.32-1.37.67-2,1-1.31.7-2.55,1.46-3.75,2.25a64.74,64.74,0,0,0-6.63,5,111.32,111.32,0,0,0-11.12,11.14c-3.39,3.85-6.53,7.81-9.54,11.82-6,8-11.51,16.27-16.79,24.59S371-13.33,366.08-4.89c-19.65,33.78-37.73,68.12-57.33,101.33C299,113,288.82,129.37,277.7,144.75a246.71,246.71,0,0,1-17.64,21.92c-6.23,6.8-12.95,13.09-20.15,17.58q-.67.42-1.35.81c-.44.25-1,.56-1.14.64-.51.28-1,.53-1.53.77a20.38,20.38,0,0,1-3.21,1.13,9,9,0,0,1-3.38.29,3.33,3.33,0,0,1-2.67-1.87,7,7,0,0,1-.57-3.32,19.16,19.16,0,0,1,.42-3.38c.12-.57.23-1.07.39-1.7l.31-1.14.46-1.61c.64-2.15,1.36-4.32,2.12-6.49,3.11-8.7,7-17.41,11-26s8.42-17.19,12.88-25.72Z" fill="none"/>
      <path d="M336.07,210.88A131.19,131.19,0,0,1,312,224.76a79.43,79.43,0,0,1-13.65,4.52c-1.18.29-2.39.49-3.59.73-1.51.2-3.06.49-4.59.58a34.55,34.55,0,0,1-9.05-.25,19.07,19.07,0,0,1-8-3.27,13.68,13.68,0,0,1-4.88-7.06c-1.7-5.54-.57-11.77,1.36-17.6l.76-2.12.67-1.7c.45-1.12.92-2.2,1.4-3.28,1-2.15,2-4.22,3.05-6.27,2.14-4.09,4.41-8,6.76-11.9,4.71-7.72,9.71-15.15,14.84-22.45s10.39-14.49,15.71-21.59c10.66-14.21,21.57-28.17,32.51-42.07,21.86-27.8,44-55.31,64.81-83.62C415.28.34,420.37-6.8,425.28-14s9.65-14.53,14-22,8.3-15.08,10.83-22.68c.32-.94.58-1.88.84-2.81l.28-1.15c.08-.32.12-.64.19-1a14.83,14.83,0,0,0,.23-3.93,7.15,7.15,0,0,0-1.33-3.67,7.07,7.07,0,0,0-3.18-2.24,10.61,10.61,0,0,0-6.38-.34,14.51,14.51,0,0,0-1.55.47c-.27.08-.49.2-.71.28a10.55,10.55,0,0,0-1,.44,30.18,30.18,0,0,0-3.95,2.23,58.06,58.06,0,0,0-7.64,6.14c-2.46,2.3-4.83,4.8-7.12,7.41-9.16,10.49-17.21,22.39-24.92,34.48s-15,24.61-22.14,37.18-14.2,25.27-21.26,38c-14.14,25.4-28.3,50.89-44,75.66a426.75,426.75,0,0,1-25.38,36.23,206.45,206.45,0,0,1-14.85,16.87,106,106,0,0,1-17.85,14.76c-.85.53-1.69,1.06-2.57,1.55l-.65.38-.33.19-.42.22-1.69.88a50.69,50.69,0,0,1-7,2.88c-4.75,1.54-9.55,2.24-14,1.35a13.13,13.13,0,0,1-6.17-3,13.85,13.85,0,0,1-3.65-5.77c-1.48-4.3-1.48-9.2-.72-14.18.18-1.24.42-2.48.68-3.72l.43-1.86c.14-.61.28-1.13.43-1.7.3-1.19.55-2,.82-3l.85-2.74c1.17-3.62,2.46-7.15,3.82-10.62,2.73-7,5.74-13.7,8.86-20.36,6.27-13.32,13-26.29,19.94-39.14s14-25.57,21.2-38.23c14.33-25.33,29-50.43,43.12-75.71,3.52-6.32,7-12.66,10.44-19,1.7-3.18,3.4-6.37,5.06-9.56l2.46-4.79,1.87-3.71c1.92-3.88,3.77-7.79,5.34-11.83a39.5,39.5,0,0,0,1.93-6.18,9.76,9.76,0,0,0,.22-3.23,2.68,2.68,0,0,0-.64-1.46,1.64,1.64,0,0,0-.67-.43,2.67,2.67,0,0,0-.77-.25,5.86,5.86,0,0,0-2.79.14,13.55,13.55,0,0,0-2.63,1,32.87,32.87,0,0,0-4.77,3A88.62,88.62,0,0,0,317.85-65c-.68.66-1.35,1.33-2,2L313-60c-2.14,2.26-4.27,4.53-6.37,6.85q-6.3,6.93-12.37,14.12C278.06-19.88,262.73.17,247.8,20.51l-11.89-8.7C251-8.74,266.47-29,283-48.59q6.21-7.35,12.71-14.52c2.16-2.39,4.38-4.76,6.61-7.11L304-72l.95-1,1.28-1.29,2.57-2.57,2.62-2.49c.86-.84,1.74-1.65,2.63-2.43s1.76-1.59,2.64-2.36c1.78-1.47,3.55-3,5.31-4.29.89-.68,1.77-1.37,2.64-1.94s1.75-1.23,2.61-1.77l2.55-1.53c.85-.49,1.67-.89,2.5-1.33a38.58,38.58,0,0,1,9.46-3.35c.77-.17,1.54-.23,2.31-.35a23.07,23.07,0,0,1,2.36-.08c.4,0,.8,0,1.2.06l1.21.21a20.71,20.71,0,0,1,2.53.67,10.39,10.39,0,0,1,2.7,1.64,7.35,7.35,0,0,1,1.77,2.38,15.37,15.37,0,0,1,1.32,4.89,32.24,32.24,0,0,1,.17,5.15,47.4,47.4,0,0,1-.71,5.8,77.59,77.59,0,0,1-4.3,13.77c-2,4.91-4.32,9.94-6.76,14.93l-1.85,3.73-1.34,2.66-2.53,4.91q-2.55,4.89-5.15,9.72c-3.47,6.46-7,12.85-10.56,19.22C309.93,16.47,295.29,41.57,281,66.8c-7.13,12.61-14.2,25.25-21,38s-13.49,25.49-19.58,38.41c-3,6.46-5.92,13-8.48,19.48-1.27,3.25-2.46,6.51-3.51,9.75l-.75,2.42c-.21.76-.5,1.73-.62,2.19l-.21.83-.15.62c-.1.41-.19.83-.26,1.25a13.69,13.69,0,0,0-.2,5.06,4.12,4.12,0,0,0,1.14,2.24,3.75,3.75,0,0,0,2.32.92,12.46,12.46,0,0,0,5-1,22.05,22.05,0,0,0,2.33-1l.58-.3.14-.08.25-.14.5-.3c.68-.37,1.35-.8,2-1.22a91.1,91.1,0,0,0,15.3-12.71,187.25,187.25,0,0,0,13.77-15.66,412.32,412.32,0,0,0,24.49-35C309.39,96.33,323.46,71,337.58,45.66c7.06-12.69,14.11-25.42,21.33-38.1s14.62-25.32,22.51-37.78c3.95-6.23,8-12.4,12.35-18.49a224.61,224.61,0,0,1,14-17.84c2.53-2.88,5.2-5.71,8.11-8.43a72.28,72.28,0,0,1,9.61-7.69,45.16,45.16,0,0,1,5.78-3.26c.51-.25,1-.49,1.58-.71s1.36-.55,2-.76a33,33,0,0,1,4-1.11,26.08,26.08,0,0,1,15.95,1.56,20,20,0,0,1,7.65,5.78,19.83,19.83,0,0,1,3.8,8.81,30.47,30.47,0,0,1-.06,9.9c-.15.83-.26,1.67-.44,2.49l-.3,1.27c-.08.31-.15.65-.24,1-.33,1.24-.69,2.47-1.08,3.65a104.33,104.33,0,0,1-5.54,13.3c-2.06,4.2-4.26,8.24-6.55,12.19-4.58,7.9-9.49,15.46-14.53,22.88S427.24,9,422,16.13c-21.11,28.7-43.3,56.27-65.12,84-10.91,13.87-21.76,27.75-32.29,41.79-5.26,7-10.44,14.08-15.45,21.21s-9.86,14.34-14.31,21.65c-2.22,3.66-4.34,7.34-6.27,11-.94,1.85-1.87,3.7-2.69,5.54-.41.92-.81,1.84-1.18,2.75l-.52,1.32-.3.83a19,19,0,0,0-.81,3,8.19,8.19,0,0,0,0,3.08,3.86,3.86,0,0,0,1.67,2.52,6.32,6.32,0,0,0,2.93.9,15.3,15.3,0,0,0,3.1-.07c.52,0,1-.14,1.56-.22.93-.19,1.85-.33,2.79-.57a64.27,64.27,0,0,0,11.13-3.7,116.64,116.64,0,0,0,21.36-12.35Z" fill="none"/>
      <path d="M407.62-31.21c2.88-6.17,7.7-10.38,10.38-12.71,1.25-2.16-2.76.29,2-4.93,3.36-3.64,3.43-2.92,3.14-1.93s-.87,2.38,1.13.27c.57-1.35,1.16-2.68,1.77-4,2.86-2.31,5.06-4.43,7.08-6.32a40.05,40.05,0,0,1,5.82-4.79,3.33,3.33,0,0,1,1.65-.41,5.81,5.81,0,0,1,.51-.31c.24-.11.1-.06.13-.09a1,1,0,0,1,.28-.1,1,1,0,0,1,.57.13,1.62,1.62,0,0,1,.6.82c.07.15.12.23.29.21a.91.91,0,0,1,.55-.37c.28-.1.57-.08.75-.14a2.42,2.42,0,0,1-.68,1.52,7.16,7.16,0,0,1,1.95-1.14c0,.73-.54,1.06-.7,1.42.32-.2.64-.53.94-.15a4.08,4.08,0,0,1-.43.54s-.06,0-.1.08l-.18.44-.43.92c-.56,1.21-1.22,2.49-1.92,3.77a16.45,16.45,0,0,1,.56-2.23c-.6,1.94-2.89,6.23-3.82,9.55.39-.14,1.14-1.08,1.54-1.21a7.92,7.92,0,0,1,2.67-5.12c-1.21,2.87-1.37,3.27-1.23,3.3s.51-.27.12,1.27a13.76,13.76,0,0,1-2.64,4.13c-.71.66-1.16.62-1.18-.08-2.16,4.85-2.84,6.48-6.31,10.9l1.44-.38q-1.44,2.13-2.93,4.25L434.18-37c-2.23,4.46-2.89,4.62-3.59,4.88s-1.47.63-4.23,5.48l.75.53c-2.63,3.41-4.75,3.78-5.7,7.18-2.8,3.15,2.93-6.66-2.74,1.38a50.08,50.08,0,0,1-3.91,7.42c-2.16,2.35.5-2.6,1.75-4.18-4.44,6-5.17,8.33-5.84,10.46s-1.32,4.05-5.79,9.12c2.18-4.11-3.68,2,2.74-6.73-3.48,3.87-5,9-9,12.8l3.06-2.14A33.61,33.61,0,0,1,398.1,13l1,.19c-5.29,4.42-6.94,10.45-11,12.36,3-1.21-3.14,3.94-4.27,6.44,4.31-3.68,9.64-12.64,11.28-12.31-1.19,2.34-3.18,3.72-4.33,6a30.24,30.24,0,0,1,3.73-3.37c-4.48,7.31-8.87,10.08-12.35,13.94l5.87-7c-1.65-.34-2.72,3.11-5.23,4.41-2.15,4.11-5.28,6.22-7.19,9.47.61-.78.77-.75,1.37-1.54-6.17,7.85-6,11.56-8.38,14.71-2.26,3.19-7.5,8.5-6.34,6-2.3,2.25,8.58-10.16,3.51-6.88-1.76,5.89-7.94,8.7-14.45,19.45,4-3.79-1,3.3,2.51-.15-3.83,4.55-4.23,4.52-6.37,6.19l-.56,1.85c-6,5.11-2.23.56-10.18,9.29,2.88-2.77-2.11,4.35.15,2.29a50,50,0,0,1-5.92,6.59l.34-.27c-7.62,9.2-5.31,8.26-12.58,16.41l.32-1.12c-9.62,10.62-19.9,25.55-28.88,37.58l2.75-4.52c-.76,1.42-6.36,7.89-8.42,12.2.56-.76,1.62-2,2.07-2.76.32.39-.12,2.29-2,5.37l-1.38.78-.33,1.54c-3,4.67,0-2-3,2.75,0,1.93-3.14,7-6.22,12.57-1.54,2.78-3.05,5.67-4.19,8.26a21.48,21.48,0,0,0-2,6.26c-1.5,1.64-.46-1.1.68-3.63s2.33-4.92.73-3.27c-.58,1.74-.71,2.54-2.17,6.22l-.28-1.62c-.43,1.08-.85,2.11-1.22,3.17q-.3.85-.6,1.68c-.25.73-.49,1.45-.71,2.16-.41,1.44-.84,2.93-1.15,4.32A39.63,39.63,0,0,0,262,209a29.25,29.25,0,0,0-.12,7.33,22.78,22.78,0,0,0,1.57,6.33,19,19,0,0,0,8.31,9.62c3.88,2.27,8.76,3.55,14.91,3.54l-1-.2c2.17,0,4.11-.28,5.84-.43l2.44-.34c.74-.1,1.59-.19,2-.25a28.46,28.46,0,0,1,4.87-.3c1.14-.7-3.2.09-1-.81,5.51-.08,10.38-2.33,14.38-4.61s7.24-4.68,10.27-5.45c-.39-.31,0-1,.62-1.9s1.59-1.95,2.4-2.93c1.59-2,2.69-3.59.11-2.84,1.15-.61,2.26-1.26,3.38-1.9-.86-.16-3.39,1.5-6.12,3.1s-5.65,3.14-6.93,3.1a94.88,94.88,0,0,1-10.87,6.16c.22-.56-1.94-.51-.1-1.33a23,23,0,0,1-3.4,1c-.57.06-.28-.18,1.51-1.14a54.22,54.22,0,0,1-10.67,3.69,36.13,36.13,0,0,1-13.76.63,17.16,17.16,0,0,1-6.26-2.36,12.52,12.52,0,0,1-4.46-5C268,217.73,268,213,269,208.47c.1-.58.25-1.15.4-1.71s.27-1.15.46-1.71c.36-1.13.7-2.26,1.11-3.32l.3-.81.15-.4.14-.33.54-1.31c.36-.88.75-1.72,1.13-2.58,1.55-3.39,3.25-6.63,5-9.81,3.48-6.34,7.14-12.42,10.64-18.51,1.13-1.52.89-.38.72.38,1.88-4.94,3.24-3.77,4.95-6q1.42-3.57,2.9-7.13c2.16-2.22,1.21,0,1.61,0,8.45-11.41,15.44-23.41,23.18-31.91,1.74-3.27-1.6-.14,1.16-4.08-2.61,6.23,9.2-10.6,7.63-6.56,1.4-4.81,10.33-13.88,7-13.8,3.43-4.62,3.79-3.07,3-1.63A105.25,105.25,0,0,1,352.34,84c1.79-3.24,19.38-23.51,21.51-29.37-1.51,4,.71.15,3.54-2.58l-1.3,3.45,5.31-7c1.19-1.35,1.46-1.77,1.37-1.82.87-1.2-.72-.11,1.38-3.26,3.61-4.75,4.26-4.61,6.72-6.86l-.43.82L393,34.24c1.79-2.38-7.29,7.66-1.81-.38.32.08,4.95-3.56,5.91-6.12-3,4-3.19,3-2.35,1.37l4.14-5.57-.27,2.66c12-15.91,23.53-33.15,34.95-50.8C433-24.81,435-28,436.7-31s3.24-6,2-5.59l-.25.77c-2.76,4.3-.43-2,1.69-5.46-1.58,4.05,5.31-5.91.47,3.42,1.57-2.23,3.14-4.48,4.61-6.76,2.53-1.21,5-6.18,6.75-12.19a46.59,46.59,0,0,0,1.07-4.6,30,30,0,0,0,.41-3.79,14.81,14.81,0,0,0-1.2-7,1.2,1.2,0,0,1,0,1,5.6,5.6,0,0,0-1.57-2.47,7.93,7.93,0,0,0-2.6-1.53,10.73,10.73,0,0,0-4.58-.6,13.25,13.25,0,0,0-3.91,1,16.16,16.16,0,0,0-1.48.7c-.48.22-1,.54-1.47.76a14.9,14.9,0,0,1-2,1l-.25,1.25a34.66,34.66,0,0,0-4.79,2.34,25.33,25.33,0,0,0-3.46,2.38,51.8,51.8,0,0,0-7.72,8.21c.21,0,1.26-.77.25.66-2.26,1.53-4.62,3.1-9.18,9.34l.44-.08c-2.49,3.16-4.9,6.4-7.26,9.7,1.22.8-2.11,4.78-5.56,9.32s-7.07,9.56-6.69,12c-2,1.57-6.87,9.08-9.24,12.31.09.09.08.37-.15,1-3.75,3.24-6.43,12-9.17,16.42-2,2.77-1.72,1.25-1.42-.29-2.26,6.46-10.36,15.53-11.1,17.94-2.32,4.39.07,2.16,0,3.66-3.83,6.28-1.71-2.37-5.5,6.82.66-.93,1.79-2.74,1.54-1.94-1.62,3.41-2,10.93-4.37,13.89l.74-2.42c-4,5.63-5.84,15.38-8.1,15.39l-.49-1c-4.73,10.94-2.75,4.21-7.75,15.23l.22-.07c-2.74,4.48-3.17,7.52-5.73,9l.73-1.68c-3.34,5.61-3.53,6.17-6.81,11.94a18.28,18.28,0,0,0-2.54,4.22c-1.18-.34-8.38,13-9.91,15.53,2.91-4.4,2.05-2,1.69-.45-2.49,2.12-3.69,3.89-5.38,7.92-1.63-.29-3.42-.41-8.1,6.65.9-1,2.14-2.64,1.94-1.75a9.51,9.51,0,0,1-2,2.86c-.19.87,1.5-1.28,1.43-.19-4.37,4-5.55,8.24-10.77,14.76,1.9-1.89.83.14.7,1.23-.89-.24-2.24,2.3-3.4,4.41s-2.11,3.78-2,1.84a150.6,150.6,0,0,1-17.29,22c-6.33,6.84-12.66,12.09-15,14.66-1.06,1.61-5.67,3.56-8.39,5l.73.45-3.11,1.19-2.42.84c-1.38.43-2.39.8-3.46,1.08l-1.7.46-2.06.41a25.72,25.72,0,0,1-6.21.25c2.15.32,2.81.5,2.23.89a5.31,5.31,0,0,1-1.73.6,17,17,0,0,1-3.24.44,17.12,17.12,0,0,1-3.53-1.48,12.92,12.92,0,0,1-3-2.41,14.8,14.8,0,0,1-1.9-.12,22.23,22.23,0,0,1-4.1-9.56c.27,1.77,0,.86-.2.85a16.22,16.22,0,0,0,.59-3.71c.15-1.71.46-3.82.86-5.9a51.29,51.29,0,0,1,1.45-5.81,18.52,18.52,0,0,1,.7-2,5,5,0,0,1,.56-1.13c-.36-1.63.3-3.52,1-5.25s1.39-3.36,1.06-4.62c.53-.84,1.13-1.93,1.75-3.14.15,1.56.7,2.31,1.3-.25l.25-.58-.44-1.38c1.18-2.4,2.3-4.85,3-6.49a20.52,20.52,0,0,0-.62,2.66c.29-1.1.56-2.14.82-3.14.14-.32.28-.64.36-.86a3.94,3.94,0,0,0-.27.51,18.65,18.65,0,0,1,2.24-5.14c2.49-9.06,10.46-17.71,13.35-27.59-.51,1.44-1.42,3.41-2,3.78,3.91-7.53,6.7-15.6,9.85-20l.57.74c3.27-5.29,5.81-9.37,8.16-13.77l1,.22c3.16-6.54,12.13-19.36,12.6-24.21,1.54-1.16,4.74-8.85,7-12.3l-.13-1.27a92.73,92.73,0,0,1,6.11-10.23c4.08-10.23,10.42-18.22,15.06-26.55l-.14-.18,5.24-8.12c-1.83,1.86,1.35-1.42,2.62-4a54.18,54.18,0,0,0,5.48-10.32l3-5.39c-3.78,5.72-.7-.94-1.26-1.7l2.51-3.1c.42-1.59-1.81,1.89-.57-.73,1.68-2.07,5.4-8.88,7.33-10.59a9.33,9.33,0,0,1-.67,2.46c-.22.28-.19.26,0,.11l-.09.25.13-.3a7.38,7.38,0,0,1,.82-.79c2.16-4.37,1.61-2.63,1.87-2.29,1.45-5.51,3.7-7.82,4.28-12.3-.55,3,.93.15,2.5-2.91.78-1.53,1.59-3.12,2.19-4.08.32-.53.48-.69.66-.77s.26.07.29.49a5.75,5.75,0,0,1,.52-2.57,2,2,0,0,0,.17-1.57c-1.24,3.42-5.37,8.75-8,12.44l1.39-4.43c-2.72,1.94-4.25,9.34-6,11.51,1.19-1.45,2.82-5.27,2.58-5.56l.45,1.65c-2.66,6-6,10.14-8.72,13.93,1.78-4-3.19,4.33-2.37,1.13l1.8-3c.4-1.6-1.53,1.18-2.77,2.71-4.54,10-15.13,27.13-16.29,31A35.66,35.66,0,0,1,300.56,0l-2.13,4.72c2.11-3.62,2.84-7,6.21-12.19.13,1.27,3.22-2.13,1.81,2.46-4.83,10.87-6.47,7.51-13.3,20-.86,1,2.53-2-1.59,4.41-5.4,7.93-10.35,13.16-11.74,12.36,2.41-3.26,7.23-9.78,6.84-11.44-2.41,3.25-6.11,9.14-7,9.07-.89,4.28,4.12-6.38,2.38-1.08a23.15,23.15,0,0,1-3.27,4.29c1.43-1.36-.44,2.67-.59,3.56-4.53,8-6.64,12.83-11.38,21.43-.1.57-.24,1.7.18,1.62-2.69,4-7.82,9-7.67,7-2.81,4.89-2.4,5.47-5.07,9.49,2.69-7.3-.55,1.41-2.08,1.5-2.53,4.22-.29,1.8-1.12,3.93-.52.65-1.84,2.15-2.22,2.11-.59,3.11,5.09-3.89,4.38-.22-.56,2.49-4.48,12.37-4.74,13.1-2.08,1.53-5.75-1.22-5.35-5-.85,0-1.51,4.5-2.46,6.45-1.88,6.1-5.35,8-7.34,12.89l2.45-3.22c-.12.9-4,7.55-5,8.46.3.36,3.78-2.55,3.15-.2-4.09,8.45-10.1,15.51-11,14.44q3.75-6.28,7.62-12.41c-.73-1-5.56,8.7-6.44,7.62q-2.78,6.1-5.44,12.32c.74-1.55,3.23-6.11,2.9-4-2.5,5.2-1.11,2.79-2.27,6.51a148.3,148.3,0,0,1,15.77-17.79l-3.68,5.78-.19,1.81c-4.67,7.6-11.81,13.3-13.78,15.09-1.84,4.92,1,4.12,1.9,3.16a32.78,32.78,0,0,1-5.32,8.93,25,25,0,0,0-4.85,9.57c.26-1.35.53-2.71.82-4a67.13,67.13,0,0,0-2.12,6.51l-1,3.58c-.29,1-.46,1.56-.48,1.2a10.2,10.2,0,0,0,.42,4.16c.38.74.82.56,1.4-1.19a46.32,46.32,0,0,0-3.14,14.75c0-2.18,2-1.52,2.22-2.5a41.77,41.77,0,0,1,0,6.43c-.17,1.41-.66,1.88-1.34.35a23.76,23.76,0,0,0,2.87,4.83,15.31,15.31,0,0,0,1.1,1.32,14,14,0,0,0,1.92,1.79,10.08,10.08,0,0,0,1.23.83,14.11,14.11,0,0,0,4.32,1.7c1.31.62,1,1,.1,1.19a6.19,6.19,0,0,1-1.72,0,6.11,6.11,0,0,1-1.8-.56,18.59,18.59,0,0,0,4.2,2.27c.68.22,1.33.41,1.95.58L222,210a20.78,20.78,0,0,0,3.27.16c.51,0,1,0,1.46-.06l1.39-.17c-3,0-4.54-.58-5.23-1.08a1,1,0,0,1-.16-1.58c.81-1,2.58-2.12,1.87-2.83l1.22.38,1.27.29a24.38,24.38,0,0,0,2.67.44c.92.07,1.87.15,2.86.17s2,0,3-.09a43.73,43.73,0,0,0,6.5-1c1.12-.25,2.27-.52,3.41-.88l1.75-.51.37-.11.31-.08.62-.16a3.63,3.63,0,0,1-.77-.09,9.85,9.85,0,0,0-1.07-.24c-.82-.14-1.47-.36-1.45-.48a2.1,2.1,0,0,0,.79-.09c.18,0,.38-.09.6-.16l.54-.17a20.58,20.58,0,0,0,2.86-1.2,54.45,54.45,0,0,0,7.78-4.79,98.47,98.47,0,0,0,14.43-13.1l-1.05,1.08c-.91.53.07-.82,1.57-2.58a50.09,50.09,0,0,1,4.85-5.07c-.62.23-1.08.88-2.07,2a15.89,15.89,0,0,1,5.37-5.31,13.24,13.24,0,0,0,5.09-5.6c-3.59,4.79-4.92,5.26-5.19,4.62,1.8-1.71,4.33-4.88,6.37-7.27s3.61-4,3.67-2.47c1.57-2.75,3.4-4.87,2.46-5.23q4-4.47,7.78-9.05c-.67.62-1.55.93.28-2-3.5,5.63-8.73,9.83-9.8,13.39-1.06-.57-.09-2.94-2.78-1,8-10,13.52-14.66,19.09-20.64q2.7-4.94,5.31-9.9l.71-.12-.12-2.37c1-1,1.7-1.64,1.74-1.95s-.31-.07-.77.29a17.93,17.93,0,0,1,1.74-2.19c-.38-.76-2.1.49-3.84,1.88-.32,1-.63,2-1,3-1.74,1.48-3.17,2.44-2-.37.31-.32.69-.73,1.08-1.17-1.17.91-2,1.41-1.6.43l5-6.86c-.35.92-.78,2.35-1.29,4,3.57-4.06,7.63-8.72,5.94-4.15l2.67-6c5.05-5.84,4.14-4.83,9.68-12.32-.16-.68-1.75,1.25-1.21-.35,4.72-5.07,6.63-15.13,8.51-15.73,3-4.56,2.14-1.38,4.16-4.2-.21.07-.63.2-.15-.69l2.84-3.07c.52-1.63-2.42,2.94-.53-1.29,4.49-6.51,7.17-10.3,10-16.28,4.74-8-.25,4.45,3.42-2.55-.13-1.41-.46-2.76,1.82-7.12,1.75-2,2.12-1.4,4.58-5.08L363.48,43c2-3.54,3.82-6.28,3-6.75A27,27,0,0,0,370.32,30c3.59-5.08-.07,5.17-.35,6.67,2.17-5.77,4.69-9.15,5.11-12.88l-2.93,4.52c4.31-10.72,6.85-8.6,7.23-14.49-1.87,3.46-4.76,7.23-4.19,4.88L378.55,14c0-.73-1.81,2.72-.84.27,1-1.28,3.23-3.83,4.31-4.89l-.1,0,5.33-8.7c-.94,1.69-1.57,1.87-.63.18l4-5.42c-1.32,1.6-.57-.4.81-3.06,4.15-7.53,5.91-4.42,8.37-10.68-.49.83-.71.88-1.21,1.73l1.36-3.17c1.29.39,4-3.79,6.83-7.86s5.69-8,6.95-7.56c1.9-4.41-.34-.7-4.81,3.65L411.17-36C409.91-34.44,409.08-32.9,407.62-31.21ZM373.37,25c-.08,1.24-2.08,3.58-3,4.82C371.38,27.39,371.6,26,373.37,25Zm-62.64,103.8a12.93,12.93,0,0,1-2.51,4.29A28.79,28.79,0,0,1,310.73,128.79ZM307.56-4.6a1.35,1.35,0,0,0,.12-.12C306.67-2.59,306.19-1.46,307.56-4.6Zm1.68-3.3a13.43,13.43,0,0,1,2.07-3.3c0-.33-.05-.43-.51.12C309.58-9.34,309.28-8.46,309.24-7.9Zm73.44,53.75L382,47.08C381.28,47.59,380.56,48.13,382.68,45.85Z" fill="#87cdd6"/>
      <path d="M211.38,155c2.14-6.62,1.7-1.1,3.54-7.06,1-1.31-1.51,4.85-.51,3.48C212.4,155.09,211.88,157.28,211.38,155Z" fill="#ffab00"/>
      <path d="M214.41,151.44c.33-.58.68-1.19,1.08-1.83A19.36,19.36,0,0,1,214.41,151.44Z" fill="#ffab00"/>
      <path d="M213.82,162.71c1-3.32,1.4-3.58,1.77-3.78s.71-.33,1.56-3.29c1-1.33-1.37,4.83-.41,3.46C214.84,162.75,214.41,164.94,213.82,162.71Z" fill="#ffab00"/>
      <path d="M216.74,159.1c.31-.59.65-1.2,1-1.84C217.23,158.3,216.94,158.79,216.74,159.1Z" fill="#ffab00"/>
      <path d="M219.39,42.93c-1.14,1.52-.09,1.42-.14,1.73C220.91,42,219.17,42.88,219.39,42.93Z" fill="#fff"/>
    </g>
    <g clip-path="url(#l)">
      <g clip-path="url(#m)">
        <path d="M195.91,2.3a1.26,1.26,0,1,1-1.25-1.25A1.25,1.25,0,0,1,195.91,2.3Z" fill="#00e1d5"/>
        <path d="M201.07,2.3a1.26,1.26,0,1,1-1.26-1.25A1.25,1.25,0,0,1,201.07,2.3Z" fill="#00e1d5"/>
        <path d="M206.23,2.3A1.26,1.26,0,1,1,205,1.05,1.26,1.26,0,0,1,206.23,2.3Z" fill="#00e1d5"/>
        <path d="M211.38,2.3a1.26,1.26,0,1,1-1.25-1.25A1.25,1.25,0,0,1,211.38,2.3Z" fill="#00e1d5"/>
        <path d="M216.54,2.3a1.26,1.26,0,1,1-1.26-1.25A1.25,1.25,0,0,1,216.54,2.3Z" fill="#00e1d5"/>
        <path d="M221.7,2.3a1.26,1.26,0,1,1-1.26-1.25A1.26,1.26,0,0,1,221.7,2.3Z" fill="#00e1d5"/>
        <path d="M201.07,9.56a1.24,1.24,0,0,1-.17.63c-.67-.49-1.33-1-2-1.52a1.22,1.22,0,0,1,.88-.37A1.26,1.26,0,0,1,201.07,9.56Z" fill="#00e1d5"/>
        <path d="M206.23,9.56A1.26,1.26,0,1,1,205,8.3,1.26,1.26,0,0,1,206.23,9.56Z" fill="#00e1d5"/>
        <path d="M211.38,9.56a1.26,1.26,0,1,1-1.25-1.26A1.25,1.25,0,0,1,211.38,9.56Z" fill="#00e1d5"/>
        <path d="M216.54,9.56a1.26,1.26,0,1,1-1.26-1.26A1.25,1.25,0,0,1,216.54,9.56Z" fill="#00e1d5"/>
        <path d="M221.7,9.56a1.26,1.26,0,1,1-1.26-1.26A1.26,1.26,0,0,1,221.7,9.56Z" fill="#00e1d5"/>
        <path d="M211,15.88l-.73-.32A1.28,1.28,0,0,1,211,15.88Z" fill="#00e1d5"/>
        <path d="M216.54,16.81a1.23,1.23,0,0,1-.4.92c-.7-.21-1.4-.43-2.09-.67a2,2,0,0,1,0-.25,1.26,1.26,0,0,1,2.51,0Z" fill="#00e1d5"/>
        <circle cx="220.44" cy="16.81" r="1.26" fill="#00e1d5"/>
      </g>
    </g>
  </g>
</svg>
</svg>
