<?xml version="1.0"?>
<svg xmlns="http://www.w3.org/2000/svg" xmlns:xlink="http://www.w3.org/1999/xlink" width="220px" height="220px" viewBox="0 0 220 220">
  <svg xmlns="http://www.w3.org/2000/svg" xmlns:xlink="http://www.w3.org/1999/xlink" xmlns:a="http://ns.adobe.com/AdobeSVGViewerExtensions/3.0/" version="1.1" x="0px" y="0px" width="220px" height="220px" viewBox="-14.96 -18.852 220 220" enable-background="new -14.96 -18.852 220 220" xml:space="preserve">
<g fill="#F9F9F9">
<path d="M190.08,91.148c0,9.811-9.575,17.987-12.447,26.838c-2.979,9.174-0.141,21.396-5.7,29.032  c-5.613,7.714-18.15,8.769-25.861,14.378c-7.638,5.56-12.481,17.185-21.656,20.162c-8.851,2.875-19.567-3.588-29.375-3.588  c-9.811,0-20.524,6.463-29.375,3.588c-9.177-2.978-14.023-14.603-21.659-20.162c-7.71-5.609-20.247-6.664-25.858-14.378  c-5.559-7.637-2.728-19.858-5.707-29.032C9.568,109.135,0,100.958,0,91.148c0-9.811,9.568-17.987,12.44-26.837  c2.979-9.174,0.147-21.392,5.707-29.033c5.611-7.711,18.148-8.766,25.858-14.377c7.635-5.56,12.482-17.185,21.656-20.163  c8.854-2.875,19.567,3.588,29.378,3.588c9.808,0,20.524-6.463,29.375-3.588c9.175,2.979,14.019,14.604,21.656,20.163  c7.711,5.611,20.248,6.667,25.861,14.377c5.56,7.641,2.722,19.858,5.7,29.033C180.504,73.161,190.08,81.337,190.08,91.148"/>
</g>
</svg>
  <svg xmlns="http://www.w3.org/2000/svg" xmlns:xlink="http://www.w3.org/1999/xlink" xmlns:a="http://ns.adobe.com/AdobeSVGViewerExtensions/3.0/" version="1.1" x="0px" y="0px" width="220px" height="220px" viewBox="-5.473 -9.345 220 220" enable-background="new -5.473 -9.345 220 220" xml:space="preserve">

	<g fill="#C1413E">
		<path d="M80.153,10.007c-5.142,0.025-9.364,2.329-13.432,6.735c-4.196,4.146-7.269,10.191-14.338,14.968    c-13.7,6.954-25.391,8.46-27.125,19.924c-1.301,5.438-0.798,11.824-2.076,19.289c-1.845,8.519-6.916,13.455-9.62,18.725    c-3.011,5.224-4.376,10.071-3.047,14.993c1.288,5.087,4.927,9.968,8.577,15.894c1.8,2.853,3.688,6.909,4.233,10.741    c0.642,3.752,0.702,7.095,0.924,10.277c0.354,6.357,1.276,11.835,4.459,15.466c3.09,3.782,8.54,6.02,14.675,8.364    c3.052,1.216,6.37,2.418,9.82,4.739c3.469,2.416,5.77,5.293,7.916,7.837c4.177,5.167,7.939,9.812,12.448,11.931    c4.335,2.091,9.706,1.533,15.807-0.034c5.682-1.428,13.728-4.096,21.408-2.179c6.967,1.501,12.865,3.603,18.184,3.62v0.004l0,0    l0.014,3.542c-6.209-0.054-12.341-2.311-18.884-3.688c-6.833-1.722-13.78,0.62-19.866,2.142    c-6.192,1.593-12.649,2.453-18.182-0.203c-5.544-2.654-9.541-7.834-13.663-12.878c-7.726-12.478-24.739-11.282-32.39-20.915    c-8.652-9.553-1.921-24.862-9.944-36.942c-3.445-5.659-7.413-10.827-8.97-16.835c-1.663-5.981,0.186-12.172,3.398-17.628    c2.966-5.573,7.786-10.55,9.224-17.658c1.188-6.731,0.684-13.286,2.099-19.396c1.218-6.161,5.175-11.179,10.781-14.065    c5.491-3.096,11.943-4.485,17.905-8.062c5.977-3.944,9.22-9.905,13.658-14.408c4.25-4.727,9.806-7.905,16.009-7.844    L80.153,10.007z"/>
		<path d="M80.154,0.007l0,3.544C73.08,3.42,66.429,7.317,62.03,12.306c-4.637,4.796-8.019,10.688-13.1,13.949    c-5.244,3.198-11.829,4.679-17.753,7.973c-6.093,3.033-10.962,9.193-12.212,15.963c-1.509,6.661-1.003,13.354-2.117,19.483    c-1.104,5.952-5.718,10.961-8.898,16.783c-3.379,5.646-5.623,12.941-3.687,19.791c1.778,6.764,6.015,12.167,9.292,17.606    c7.476,10.184,0.53,25.755,10.212,37.319c9.587,11.041,25.585,9.248,32.373,20.895c4.078,4.943,8.267,10.562,14.66,13.654    c6.517,3.12,13.864,2.013,20.131,0.398c6.418-1.597,12.462-3.672,18.602-2.11c6.195,1.273,12.519,3.658,19.458,3.742    l0.013,3.544c-7.828-0.12-14.386-2.66-20.157-3.81c-5.293-1.366-10.238,0.384-17.061,2.073    c-6.358,1.641-14.791,3.049-22.505-0.636c-7.427-3.628-11.851-9.78-15.874-14.601c-4.088-5.34-7.113-7.284-13.671-9.631    c-5.873-2.344-13.251-4.851-18.681-11.239c-10.937-14.015-3.729-29.903-10.539-37.777c-3.073-5.172-7.638-10.862-9.685-18.546    c-2.27-7.91,0.458-16.548,4.038-22.425c3.442-6.126,7.806-11.176,8.502-15.718c1.023-5.396,0.516-12.257,2.14-19.589    c1.287-7.511,7.268-15.063,13.955-18.274c6.453-3.534,13.199-5.128,17.569-7.864c3.99-2.428,7.541-8.236,12.42-13.389    C64.035,4.562,72.02-0.21,80.154,0.007z"/>
		<path d="M128.902,191.303c5.14-0.026,9.364-2.332,13.431-6.738c4.195-4.147,7.27-10.193,14.343-14.968    c13.7-6.945,25.386-8.46,27.121-19.921c1.298-5.438,0.792-11.824,2.07-19.291c1.846-8.523,6.92-13.452,9.624-18.724    c3.013-5.224,4.378-10.07,3.049-14.99c-1.288-5.086-4.929-9.966-8.581-15.892c-1.801-2.853-3.689-6.909-4.234-10.742    c-0.642-3.753-0.701-7.095-0.923-10.279c-0.351-6.357-1.273-11.835-4.455-15.465c-3.089-3.781-8.541-6.019-14.675-8.363    c-5.973-1.608-14.188-7.119-17.737-12.576c-4.178-5.167-7.938-9.813-12.447-11.934c-4.335-2.091-9.705-1.535-15.806,0.033    c-5.682,1.428-13.727,4.097-21.407,2.181c-6.967-1.501-12.866-3.603-18.185-3.622v-0.004l0,0l-0.012-3.542    c6.208,0.055,12.341,2.313,18.884,3.688c6.834,1.722,13.78-0.623,19.866-2.143c6.191-1.593,12.648-2.452,18.182,0.206    c5.543,2.655,9.538,7.836,13.661,12.88c7.729,12.474,24.738,11.284,32.391,20.914c8.653,9.552,1.912,24.863,9.939,36.943    c3.447,5.658,7.416,10.825,8.974,16.832c1.663,5.981-0.186,12.171-3.4,17.626c-2.966,5.574-7.79,10.546-9.227,17.656    c-1.188,6.732-0.681,13.287-2.094,19.396c-1.217,6.161-5.174,11.181-10.778,14.068c-5.49,3.097-11.941,4.485-17.904,8.059    c-5.979,3.941-9.224,9.902-13.661,14.407c-4.248,4.727-9.804,7.907-16.007,7.848V191.303z"/>
		<path d="M128.902,201.303v-3.544c7.075,0.129,13.724-3.77,18.122-8.759c4.636-4.797,8.019-10.688,13.101-13.946    c5.246-3.195,11.831-4.676,17.756-7.971c6.092-3.035,10.961-9.195,12.209-15.966c1.507-6.662,0.998-13.354,2.111-19.483    c1.102-5.951,5.722-10.959,8.902-16.781c3.38-5.645,5.626-12.939,3.688-19.79c-1.779-6.763-6.018-12.166-9.296-17.604    c-7.48-10.182-0.524-25.753-10.208-37.319c-9.589-11.039-25.584-9.25-32.374-20.893c-4.078-4.943-8.265-10.563-14.657-13.657    c-6.516-3.121-13.864-2.016-20.131-0.401c-6.418,1.596-12.463,3.674-18.602,2.112c-6.195-1.273-12.519-3.658-19.457-3.744    l-0.012-3.543c7.828,0.122,14.384,2.662,20.155,3.81c5.293,1.367,10.239-0.386,17.062-2.075    c6.358-1.641,14.793-3.048,22.506,0.639c7.427,3.629,11.848,9.783,15.87,14.603c4.087,5.337,7.116,7.283,13.673,9.63    c5.873,2.345,13.25,4.849,18.681,11.238c10.938,14.018,3.721,29.907,10.533,37.777c3.075,5.171,7.642,10.86,9.69,18.544    c2.271,7.911-0.459,16.549-4.041,22.426c-3.442,6.124-7.812,11.175-8.505,15.714c-1.023,5.395-0.513,12.255-2.135,19.589    c-1.286,7.514-7.265,15.063-13.952,18.278c-6.453,3.536-13.2,5.128-17.573,7.863c-3.989,2.425-7.542,8.231-12.419,13.385    C145.019,196.744,137.04,201.518,128.902,201.303z"/>
	</g>
</svg>
  <svg xmlns="http://www.w3.org/2000/svg" xmlns:xlink="http://www.w3.org/1999/xlink" xmlns:a="http://ns.adobe.com/AdobeSVGViewerExtensions/3.0/" version="1.1" x="0px" y="0px" width="220px" height="220px" viewBox="-65.475 -62.512 220 220" enable-background="new -65.475 -62.512 220 220" xml:space="preserve">
	 
	<g fill="#C1413E">
		<path fill-rule="evenodd" clip-rule="evenodd" d="M47.705,3.18c0-1.757-1.424-3.18-3.18-3.18   c-1.757,0-3.18,1.423-3.18,3.18v3.18h6.36V3.18z M47.705,66.789h-6.36v9.807c0,1.756-12.923,12.322-12.923,12.322l7.546-0.009   l8.586-8.171l9.208,8.238l6.953-0.12L47.705,76.595V66.789z M84.279,19.083c2.635,0,4.771-2.137,4.771-4.771   S86.914,9.54,84.279,9.54H4.771C2.136,9.54,0,11.676,0,14.311s2.136,4.771,4.771,4.771h4.835v38.229l-2.849-0.067   c-2.632,0-3.708,1.427-3.708,3.184s1.075,3.181,3.708,3.181h75.206c2.632,0,3.972-1.424,3.972-3.181   c0-3.349-3.972-3.184-3.972-3.184l-2.455,0.334V19.083H84.279z M31.904,50.885c-11.528,0-12.821-12.821-12.821-12.821   c0-12.522,12.72-12.72,12.72-12.72v12.72h12.822C44.625,50.885,31.904,50.885,31.904,50.885z M54.167,38.264h-3.281v-3.281h3.281   V38.264z M54.167,28.721h-3.281v-3.279h3.281V28.721z M68.229,38.264h-9.343c-0.904,0-1.641-0.733-1.641-1.641   c0-0.901,0.736-1.64,1.641-1.64h9.343c0.907,0,1.641,0.739,1.641,1.64C69.869,37.531,69.136,38.264,68.229,38.264z M68.229,28.721   h-9.343c-0.904,0-1.641-0.733-1.641-1.638c0-0.907,0.736-1.641,1.641-1.641h9.343c0.907,0,1.641,0.734,1.641,1.641   C69.869,27.988,69.136,28.721,68.229,28.721z"/>
	</g>
</svg>
  <svg xmlns="http://www.w3.org/2000/svg" xmlns:xlink="http://www.w3.org/1999/xlink" xmlns:a="http://ns.adobe.com/AdobeSVGViewerExtensions/3.0/" version="1.1" x="0px" y="0px" width="220px" height="220px" viewBox="-15.221 -169.576 220 220" enable-background="new -15.221 -169.576 220 220" xml:space="preserve">

	<g fill="#376E5F">
		<path d="M189.558,0H0l8.081,15.555L0,31.85h189.558l-8.539-16.295L189.558,0z"/>
	</g>
</svg>
  <svg xmlns="http://www.w3.org/2000/svg" xmlns:xlink="http://www.w3.org/1999/xlink" xmlns:a="http://ns.adobe.com/AdobeSVGViewerExtensions/3.0/" version="1.1" x="0px" y="0px" width="220px" height="220px" viewBox="-15.221 -169.576 220 220" enable-background="new -15.221 -169.576 220 220" xml:space="preserve">

	<path fill-opacity="0.15" d="M186.178,2l-6.912,12.592l-0.517,0.94l0.498,0.951l7.005,13.366H3.224l6.649-13.406l0.451-0.91l-0.468-0.9  L3.293,2H186.178 M189.558,0H0l8.081,15.555L0,31.85h189.558l-8.539-16.295L189.558,0L189.558,0z"/>
</svg>
  <svg xmlns="http://www.w3.org/2000/svg" width="220px" height="220px" viewBox="-110 -191 220 220" version="1.1">
	<text text-anchor="middle" fill="#FFFFFF" style="font-size:15px; font-family:Arial, Helvetica, sans-serif;">SLIDE SUCCESSOR</text>
</svg>
</svg>
